<?xml version="1.0" encoding="UTF-8"?>
<!--Generator: Apple Native CoreSVG 326-->
<!DOCTYPE svg
PUBLIC "-//W3C//DTD SVG 1.1//EN"
       "http://www.w3.org/Graphics/SVG/1.1/DTD/svg11.dtd">
<svg version="1.1" xmlns="http://www.w3.org/2000/svg" xmlns:xlink="http://www.w3.org/1999/xlink" viewBox="0 0 24.0688 23.7129">
 <g>
  <rect height="23.7129" opacity="0" width="24.0688" x="0" y="0"/>
  <path d="M11.8477 23.6997C18.3911 23.6997 23.6997 18.3911 23.6997 11.8521C23.6997 5.30859 18.3911 0 11.8477 0C5.3042 0 0 5.30859 0 11.8521C0 18.3911 5.3042 23.6997 11.8477 23.6997ZM11.8477 21.041C6.76758 21.041 2.65869 16.9321 2.65869 11.8521C2.65869 6.77197 6.76758 2.65869 11.8477 2.65869C16.9277 2.65869 21.0366 6.77197 21.0366 11.8521C21.0366 16.9321 16.9277 21.041 11.8477 21.041Z" fill="#0a84ff"/>
  <path d="M11.8389 8.14746C10.2876 8.14746 8.06836 7.88379 7.00928 7.72119C6.91699 7.70361 6.81152 7.68164 6.71484 7.68164C6.43359 7.68164 6.15674 7.90576 6.15674 8.30566C6.15674 8.6001 6.33252 8.85059 6.62256 8.9209C6.96533 9.02197 9.46582 9.31641 9.77344 9.37793C10.0854 9.43945 10.27 9.69873 10.2876 10.0767C10.2964 10.6479 10.2876 12.4629 10.147 13.2935C10.0107 14.1152 9.05713 18.0835 9.01318 18.2505C8.89893 18.6724 9.1582 19.0503 9.58447 19.0503C9.89209 19.0503 10.103 18.8833 10.2129 18.4746C10.4106 17.6704 11.0918 14.9326 11.3159 14.269C11.4565 13.79 11.5708 13.6187 11.8389 13.6187C12.1025 13.6187 12.2212 13.79 12.375 14.269C12.5771 14.9238 13.2759 17.666 13.4648 18.4746C13.5703 18.8833 13.7856 19.0503 14.0933 19.0503C14.5239 19.0503 14.77 18.6724 14.6602 18.2505C14.625 18.0835 13.6538 14.1152 13.5308 13.2935C13.4033 12.4629 13.4033 10.6479 13.4033 10.0767C13.4033 9.69873 13.5879 9.44385 13.8999 9.37793C14.2119 9.31641 16.708 9.03516 17.0552 8.9209C17.3452 8.8418 17.521 8.6001 17.521 8.30566C17.521 7.90576 17.2266 7.68164 16.9629 7.68164C16.8618 7.68164 16.7607 7.70361 16.6685 7.72119C15.605 7.88379 13.4033 8.14746 11.8389 8.14746ZM11.8389 7.42676C12.6299 7.42676 13.2627 6.77637 13.2627 5.99854C13.2627 5.21191 12.6299 4.5791 11.8389 4.5791C11.0479 4.5791 10.415 5.21191 10.415 5.99854C10.415 6.77637 11.0479 7.42676 11.8389 7.42676Z" fill="#0a84ff"/>
 </g>
</svg>
