<svg width="14" height="15" viewBox="0 0 14 15" fill="none" xmlns="http://www.w3.org/2000/svg">
<path fill-rule="evenodd" clip-rule="evenodd" d="M8 3.5C8 5.15685 6.65685 6.5 5 6.5C3.34315 6.5 2 5.15685 2 3.5C2 1.84315 3.34315 0.5 5 0.5C6.65685 0.5 8 1.84315 8 3.5ZM10.75 8C11.1642 8 11.5 8.33579 11.5 8.75V10.5H13.25C13.6642 10.5 14 10.8358 14 11.25C14 11.6642 13.6642 12 13.25 12H11.5V13.75C11.5 14.1642 11.1642 14.5 10.75 14.5C10.3358 14.5 10 14.1642 10 13.75V12H8.25C7.83579 12 7.5 11.6642 7.5 11.25C7.5 10.8358 7.83579 10.5 8.25 10.5H10V8.75C10 8.33579 10.3358 8 10.75 8ZM5 7.49997C6.49337 7.49997 7.83382 8.15466 8.75 9.19269V9.24999H8.25C7.14543 9.24999 6.25 10.1454 6.25 11.25C6.25 12.003 6.66612 12.6588 7.28095 13H0.5C0.223858 13 0 12.7761 0 12.5C0 9.73855 2.23858 7.49997 5 7.49997Z" fill="white"/>
</svg>
