<svg width="23" height="22" viewBox="0 0 23 22" fill="none" xmlns="http://www.w3.org/2000/svg">
<path d="M2.83942 1.06844C0.974703 2.07805 0.767512 3.04728 0.726074 10.9223C0.726074 18.9992 0.974703 20.13 3.00517 21.0184C4.49694 21.6646 18.503 21.6646 19.9948 21.0184C22.0253 20.13 22.2739 18.9588 22.2739 11.0031C22.2739 3.04728 22.0253 1.87613 19.9948 0.987667C18.4201 0.301128 4.16544 0.341513 2.83942 1.06844ZM14.8565 3.5319C15.851 3.89536 17.2184 4.62228 17.8815 5.14728L19.0832 6.07613L17.3428 8.13574L15.5609 10.1954H11.5H7.43905L5.65721 8.13574L3.91681 6.07613L5.11851 5.14728C7.72912 3.04728 11.5414 2.44151 14.8565 3.5319Z" fill="white"/>
<path d="M12.9917 7.20695L11.4585 9.4281L12.5773 9.30695C13.5718 9.18579 13.779 8.94349 14.1934 7.04541C14.4835 5.91464 14.6492 4.94541 14.6078 4.94541C14.5664 4.94541 13.8205 5.95502 12.9917 7.20695Z" fill="white"/>
</svg>
