<svg width="18" height="24" viewBox="0 0 18 24" fill="none" xmlns="http://www.w3.org/2000/svg">
<g clip-path="url(#clip0_962_7655)">
<path d="M4.31273 24C5.26258 24 5.85573 23.4698 5.8437 22.5991L5.6353 11.1796C5.62327 10.7036 5.75553 10.4908 6.12024 10.3283C7.58307 9.68591 8.22432 8.9971 8.13213 7.04289L7.83155 0.96356C7.79949 0.460496 7.50693 0.162528 7.026 0.162528C6.55308 0.162528 6.27253 0.475976 6.27653 0.982909L6.35669 6.87263C6.3607 7.25573 6.13226 7.48017 5.79159 7.48017C5.43091 7.48017 5.20647 7.26733 5.20246 6.89585L5.09025 0.785552C5.08222 0.301839 4.78565 0 4.31273 0C3.83582 0 3.54324 0.301839 3.53122 0.785552L3.419 6.89585C3.41099 7.2596 3.18255 7.48017 2.82985 7.48017C2.48519 7.48017 2.25675 7.25573 2.26075 6.87263L2.34091 0.982909C2.34492 0.475976 2.0724 0.162528 1.59547 0.162528C1.11855 0.162528 0.817963 0.464367 0.785901 0.96356L0.485319 7.04289C0.389133 8.9971 1.0424 9.68591 2.49722 10.3283C2.86594 10.4908 2.99818 10.7036 2.99017 11.1796L2.77777 22.5991C2.75772 23.4776 3.3669 24 4.31273 24ZM12.6328 15.0842L12.4405 22.5527C12.4164 23.4776 13.0296 24 13.9674 24C14.9333 24 15.5185 23.4931 15.5185 22.6301V0.801032C15.5185 0.286359 15.1738 0 14.7289 0C14.3201 0 14.0476 0.212834 13.7029 0.684941C11.9916 2.98743 10.7692 7.56917 10.7692 11.5627V12.1703C10.7692 12.9326 11.0177 13.4086 11.655 13.8304L12.1159 14.1322C12.5006 14.3915 12.6489 14.6469 12.6328 15.0842Z" fill="white"/>
</g>
<defs>
<clipPath id="clip0_962_7655">
<rect width="17.048" height="24" fill="white" transform="translate(0.476074)"/>
</clipPath>
</defs>
</svg>
