<svg width="36" height="28" viewBox="0 0 36 28" fill="none" xmlns="http://www.w3.org/2000/svg">
<path d="M21.914 4.05875C21.8531 4.08612 21.722 4.23864 21.6284 4.39899C21.3474 4.86046 20.9681 5.34932 19.3245 7.34774C17.1985 9.92888 16.3509 11.0317 15.4378 12.4005C14.5387 13.7458 13.9206 15.0169 13.6771 16.0337C13.5694 16.4834 13.5741 17.4689 13.6818 18.0243C14.1875 20.5937 16.3135 22.7329 19.2121 23.5972C20.2235 23.9022 20.9447 24 22.0919 24C23.2392 24 23.9603 23.9022 24.9718 23.5972C27.861 22.7368 30.0291 20.5546 30.4927 18.0438C30.7081 16.8667 30.6051 16.0454 30.09 14.837C29.3361 13.0614 28.0156 11.1921 24.7002 7.19522C23.3844 5.60743 22.8927 4.96996 22.5977 4.47329C22.312 4.00008 22.195 3.92578 21.914 4.05875Z" fill="white"/>
</svg>
