<svg width="25" height="24" viewBox="0 0 25 24" fill="none" xmlns="http://www.w3.org/2000/svg">
<g clip-path="url(#clip0_1004_1029)">
<mask id="mask0_1004_1029" style="mask-type:luminance" maskUnits="userSpaceOnUse" x="0" y="0" width="25" height="24">
<path d="M24.0588 9.81819H12.877V14.4546H19.3133C18.7133 17.4 16.2042 19.0909 12.877 19.0909C8.94968 19.0909 5.78605 15.9273 5.78605 12C5.78605 8.07273 8.94968 4.90909 12.877 4.90909C14.5679 4.90909 16.0951 5.50909 17.2951 6.49091L20.7861 3C18.6588 1.14545 15.9315 0 12.877 0C6.22241 0 0.876953 5.34546 0.876953 12C0.876953 18.6546 6.22241 24 12.877 24C18.877 24 24.3315 19.6364 24.3315 12C24.3315 11.2909 24.2224 10.5273 24.0588 9.81819Z" fill="white"/>
</mask>
<g mask="url(#mask0_1004_1029)">
<path d="M-0.213867 19.0909V4.90906L9.05886 12L-0.213867 19.0909Z" fill="#FBBC05"/>
</g>
<mask id="mask1_1004_1029" style="mask-type:luminance" maskUnits="userSpaceOnUse" x="0" y="0" width="25" height="24">
<path d="M24.0588 9.81819H12.877V14.4546H19.3133C18.7133 17.4 16.2042 19.0909 12.877 19.0909C8.94968 19.0909 5.78605 15.9273 5.78605 12C5.78605 8.07273 8.94968 4.90909 12.877 4.90909C14.5679 4.90909 16.0951 5.50909 17.2951 6.49091L20.7861 3C18.6588 1.14545 15.9315 0 12.877 0C6.22241 0 0.876953 5.34546 0.876953 12C0.876953 18.6546 6.22241 24 12.877 24C18.877 24 24.3315 19.6364 24.3315 12C24.3315 11.2909 24.2224 10.5273 24.0588 9.81819Z" fill="white"/>
</mask>
<g mask="url(#mask1_1004_1029)">
<path d="M-0.213867 4.90906L9.05886 12L12.877 8.6727L25.968 6.54542V-1.09094H-0.213867V4.90906Z" fill="#EA4335"/>
</g>
<mask id="mask2_1004_1029" style="mask-type:luminance" maskUnits="userSpaceOnUse" x="0" y="0" width="25" height="24">
<path d="M24.0588 9.81819H12.877V14.4546H19.3133C18.7133 17.4 16.2042 19.0909 12.877 19.0909C8.94968 19.0909 5.78605 15.9273 5.78605 12C5.78605 8.07273 8.94968 4.90909 12.877 4.90909C14.5679 4.90909 16.0951 5.50909 17.2951 6.49091L20.7861 3C18.6588 1.14545 15.9315 0 12.877 0C6.22241 0 0.876953 5.34546 0.876953 12C0.876953 18.6546 6.22241 24 12.877 24C18.877 24 24.3315 19.6364 24.3315 12C24.3315 11.2909 24.2224 10.5273 24.0588 9.81819Z" fill="white"/>
</mask>
<g mask="url(#mask2_1004_1029)">
<path d="M-0.213867 19.0909L16.1498 6.54542L20.4589 7.09088L25.968 -1.09094V25.0909H-0.213867V19.0909Z" fill="#34A853"/>
</g>
<mask id="mask3_1004_1029" style="mask-type:luminance" maskUnits="userSpaceOnUse" x="0" y="0" width="25" height="24">
<path d="M24.0588 9.81819H12.877V14.4546H19.3133C18.7133 17.4 16.2042 19.0909 12.877 19.0909C8.94968 19.0909 5.78605 15.9273 5.78605 12C5.78605 8.07273 8.94968 4.90909 12.877 4.90909C14.5679 4.90909 16.0951 5.50909 17.2951 6.49091L20.7861 3C18.6588 1.14545 15.9315 0 12.877 0C6.22241 0 0.876953 5.34546 0.876953 12C0.876953 18.6546 6.22241 24 12.877 24C18.877 24 24.3315 19.6364 24.3315 12C24.3315 11.2909 24.2224 10.5273 24.0588 9.81819Z" fill="white"/>
</mask>
<g mask="url(#mask3_1004_1029)">
<path d="M25.9679 25.0909L9.05877 12L6.87695 10.3636L25.9679 4.90906V25.0909Z" fill="#4285F4"/>
</g>
</g>
<defs>
<clipPath id="clip0_1004_1029">
<rect width="24" height="24" fill="white" transform="translate(0.501953)"/>
</clipPath>
</defs>
</svg>
