<svg width="29" height="25" viewBox="0 0 29 25" fill="none" xmlns="http://www.w3.org/2000/svg">
<path d="M11.415 22.7529L17.585 22.7529L17.585 16.0908C17.585 15.8389 17.5088 15.6367 17.3564 15.4844C17.21 15.332 17.0107 15.2559 16.7588 15.2559L12.25 15.2559C11.998 15.2559 11.7959 15.332 11.6436 15.4844C11.4912 15.6367 11.415 15.8389 11.415 16.0908L11.415 22.7529ZM4.43652 22.1641L4.43652 13.0586L13.7881 5.22754C14.0107 5.03418 14.2451 4.9375 14.4912 4.9375C14.7373 4.93164 14.9746 5.02832 15.2031 5.22754L24.5635 13.0762L24.5635 22.1641C24.5635 22.9434 24.335 23.5527 23.8779 23.9922C23.4209 24.4316 22.7939 24.6514 21.9971 24.6514L6.99414 24.6514C6.19727 24.6514 5.57031 24.4316 5.11328 23.9922C4.66211 23.5527 4.43652 22.9434 4.43652 22.1641ZM1.94922 12.7949C1.63281 12.7949 1.38379 12.7012 1.20215 12.5137C1.02051 12.3203 0.929688 12.0977 0.929688 11.8457C0.929688 11.7051 0.961914 11.5674 1.02637 11.4326C1.09082 11.292 1.19043 11.166 1.3252 11.0547L13.0322 1.22852C13.4893 0.841797 13.9785 0.648437 14.5 0.648437C15.0215 0.648437 15.5107 0.841797 15.9678 1.22852L27.6748 11.0547C27.8096 11.166 27.9092 11.292 27.9736 11.4326C28.0381 11.5674 28.0703 11.7051 28.0703 11.8457C28.0703 12.0977 27.9795 12.3203 27.7979 12.5137C27.6221 12.7012 27.373 12.7949 27.0508 12.7949C26.8984 12.7949 26.7549 12.7598 26.6201 12.6895C26.4912 12.6191 26.3652 12.5342 26.2422 12.4346L14.9834 2.98633C14.8311 2.85742 14.6699 2.79297 14.5 2.79297C14.3301 2.79297 14.1689 2.85742 14.0166 2.98633L2.75781 12.4346C2.63477 12.5342 2.50586 12.6191 2.37109 12.6895C2.24219 12.7598 2.10156 12.7949 1.94922 12.7949ZM21.8213 6.72168L21.8213 3.98828C21.8213 3.75977 21.8916 3.57812 22.0322 3.44336C22.1787 3.30273 22.3662 3.23242 22.5947 3.23242L23.9834 3.23242C24.2178 3.23242 24.4053 3.30273 24.5459 3.44336C24.6865 3.57812 24.7568 3.75977 24.7568 3.98828L24.7568 9.18262L21.8213 6.72168Z" fill="#999999"/>
</svg>
