<svg width="17" height="17" viewBox="0 0 17 17" fill="none" xmlns="http://www.w3.org/2000/svg">
<path d="M14.4899 0.423267L14.49 0.423247C14.881 0.297437 15.3057 0.398417 15.5979 0.690612C15.8892 0.981977 15.992 1.40573 15.8662 1.79967C15.8662 1.79978 15.8662 1.79989 15.8661 1.8L11.5322 15.2784L11.5321 15.2787C11.3986 15.6953 11.0468 15.9825 10.6111 16.0305C10.5668 16.035 10.5247 16.0375 10.4851 16.0375C10.0978 16.0375 9.7468 15.8379 9.54624 15.4948L6.85944 10.8883L10.8476 6.90015C11.2508 6.49689 11.2508 5.84313 10.8476 5.43987C10.4443 5.03661 9.79055 5.03661 9.38729 5.43987L9.38727 5.43989L5.40019 9.42798L0.793481 6.74107L0.793282 6.74095C0.414275 6.52036 0.209166 6.11488 0.256808 5.67929L0.256814 5.67924C0.304498 5.24242 0.591586 4.89096 1.01002 4.75628C1.01004 4.75627 1.01007 4.75626 1.01009 4.75625L14.4899 0.423267Z" fill="url(#paint0_linear_1067_206)" stroke="url(#paint1_linear_1067_206)" stroke-width="0.5" stroke-linecap="round"/>
<defs>
<linearGradient id="paint0_linear_1067_206" x1="8.08451" y1="0.120117" x2="8.08451" y2="16.2875" gradientUnits="userSpaceOnUse">
<stop stop-color="#E2EDFF"/>
<stop offset="1" stop-color="white"/>
</linearGradient>
<linearGradient id="paint1_linear_1067_206" x1="8.08451" y1="0.120117" x2="8.08451" y2="16.2875" gradientUnits="userSpaceOnUse">
<stop stop-color="#EBF3FC"/>
<stop offset="1" stop-color="#D6E3F8"/>
</linearGradient>
</defs>
</svg>
