<svg width="23" height="26" viewBox="0 0 23 26" fill="none" xmlns="http://www.w3.org/2000/svg">
<path d="M0.460938 3.99707C0.460938 3.40527 0.639648 2.93945 0.99707 2.59961C1.35449 2.25391 1.84375 2.08105 2.46484 2.08105L4.53027 2.08105C4.62402 1.50098 4.87305 1.0498 5.27734 0.727539C5.6875 0.405273 6.22363 0.244141 6.88574 0.244141L16.1055 0.244141C16.7734 0.244141 17.3096 0.408203 17.7139 0.736328C18.1182 1.06445 18.3701 1.5127 18.4697 2.08105L20.5264 2.08105C21.1416 2.08105 21.6279 2.25391 21.9854 2.59961C22.3486 2.93945 22.5303 3.40527 22.5303 3.99707C22.5303 5.50293 22.29 6.82422 21.8096 7.96094C21.335 9.09766 20.6201 10.0674 19.665 10.8701C18.71 11.667 17.5146 12.3057 16.0791 12.7861C15.7041 13.2842 15.2969 13.7354 14.8574 14.1396C14.4238 14.5381 13.9873 14.8721 13.5479 15.1416L13.5479 19.835L15.4287 19.835C16.1846 19.835 16.7646 20.043 17.1689 20.459C17.5791 20.8809 17.7842 21.4551 17.7842 22.1816L17.7842 24.1592C17.7842 24.417 17.6934 24.6279 17.5117 24.792C17.3359 24.9619 17.1221 25.0469 16.8701 25.0469L6.12109 25.0469C5.86914 25.0469 5.65234 24.9619 5.4707 24.792C5.29492 24.6279 5.20703 24.417 5.20703 24.1592L5.20703 22.1816C5.20703 21.4551 5.40918 20.8809 5.81348 20.459C6.22363 20.043 6.80957 19.835 7.57129 19.835L9.44336 19.835L9.44336 15.1416C9.00977 14.8721 8.57324 14.5381 8.13379 14.1396C7.69434 13.7354 7.28711 13.2842 6.91211 12.7861C5.48242 12.3057 4.29004 11.667 3.33496 10.8701C2.37988 10.0674 1.66211 9.09766 1.18164 7.96094C0.701172 6.82422 0.460938 5.50293 0.460938 3.99707ZM2.13086 4.2168C2.13086 5.69922 2.41504 6.95605 2.9834 7.9873C3.55176 9.01855 4.38379 9.83594 5.47949 10.4395C5.16895 9.79492 4.91992 9.10645 4.73242 8.37402C4.54492 7.63574 4.45117 6.86816 4.45117 6.07129L4.45117 3.83008L2.51758 3.83008C2.40625 3.83008 2.3125 3.86816 2.23633 3.94434C2.16602 4.01465 2.13086 4.10547 2.13086 4.2168ZM17.5117 10.4395C18.6074 9.83594 19.4395 9.01855 20.0078 7.9873C20.582 6.95605 20.8691 5.69922 20.8691 4.2168C20.8691 4.10547 20.8311 4.01465 20.7549 3.94434C20.6846 3.86816 20.5879 3.83008 20.4648 3.83008L18.54 3.83008L18.54 6.07129C18.54 6.86816 18.4463 7.63574 18.2588 8.37402C18.0771 9.10645 17.8281 9.79492 17.5117 10.4395Z" fill="#999999"/>
</svg>
