<svg width="25" height="26" viewBox="0 0 25 26" fill="none" xmlns="http://www.w3.org/2000/svg">
<path d="M16.9488 0.0516033C15.7301 0.210978 14.4832 0.796916 13.5738 1.64535C12.0082 3.10785 10.8457 5.5266 10.4754 8.10004C10.391 8.68129 10.2832 9.04692 10.091 9.37035C10.0254 9.48754 9.6129 9.94692 9.18165 10.3875C8.32384 11.2641 8.12228 11.536 7.90665 12.1125C7.72384 12.6094 7.68165 13.3079 7.80353 13.8469C8.05665 15 8.99884 15.9422 10.152 16.1954C10.6629 16.3125 11.3895 16.275 11.8488 16.111C12.416 15.9141 12.6738 15.7219 13.5645 14.8547C14.0332 14.4047 14.5113 13.9782 14.6285 13.9079C14.952 13.7157 15.3176 13.6079 15.8988 13.5235C18.4629 13.1532 20.8629 12.0094 22.3254 10.4532C23.9848 8.69067 24.4442 6.10785 23.5113 3.81567C22.8129 2.10942 21.2379 0.717228 19.4285 0.220354C18.7113 0.0234776 17.7129 -0.0468349 16.9488 0.0516033Z" fill="white"/>
<path d="M5.00528 16.0641L3.51935 17.5453L3.27091 17.3766C2.85841 17.0907 2.53966 17.0016 1.98653 17.025C1.56466 17.0391 1.48497 17.0578 1.18966 17.2032C0.163096 17.7047 -0.268154 18.9094 0.200596 19.9407C0.369346 20.3016 0.538096 20.5172 0.856846 20.7516C1.39122 21.1407 2.14122 21.2532 2.76935 21.0282L3.07872 20.9203L2.97091 21.2297C2.74591 21.8578 2.85841 22.6078 3.24747 23.1422C4.18028 24.4032 6.10216 24.225 6.8006 22.8094C6.94122 22.5141 6.95997 22.4344 6.97403 22.0125C6.99747 21.4594 6.90841 21.1407 6.62247 20.7282L6.45372 20.4797L7.93497 18.9938C8.7506 18.1735 9.42091 17.4938 9.42091 17.4703C9.42091 17.4516 9.39278 17.4375 9.35997 17.4375C9.24278 17.4375 8.45997 17.025 8.16935 16.8141C7.5506 16.3547 7.07247 15.7735 6.74903 15.0797C6.64591 14.8594 6.56153 14.6578 6.56153 14.6297C6.56153 14.6016 6.54747 14.5782 6.52403 14.5782C6.50528 14.5782 5.82091 15.2485 5.00528 16.0641Z" fill="white"/>
</svg>
