<svg width="20" height="22" viewBox="0 0 20 22" fill="none" xmlns="http://www.w3.org/2000/svg">
<path d="M9.96008 21.5C13.3269 21.5 16.0538 18.8557 16.0538 15.5907C16.0538 12.3185 13.3269 9.67411 9.96008 9.67411C6.58566 9.67411 3.86634 12.3185 3.86634 15.5907C3.86634 18.8557 6.58566 21.5 9.96008 21.5ZM8.17003 18.6784C7.85012 18.9073 7.50734 18.671 7.63683 18.3016L8.33762 16.2481L6.53234 14.9998C6.22766 14.7856 6.32667 14.3646 6.73801 14.3646L8.9546 14.3794L9.64015 12.3259C9.76202 11.9639 10.1733 11.9639 10.2876 12.3259L10.9732 14.3794L13.1974 14.3646C13.6087 14.3646 13.6849 14.793 13.403 14.9924L11.5901 16.2481L12.2985 18.3016C12.428 18.671 12.0853 18.9073 11.7577 18.6784L9.96769 17.4078L8.17003 18.6784ZM4.2091 11.2105C5.14602 10.0582 6.44855 9.18659 7.94913 8.78034L3.65305 0.9949L1.07844 4.81376C0.933716 5.03535 0.926099 5.27911 1.05559 5.49332L4.2091 11.2105ZM7.70538 5.38991H12.2224L14.9722 0.5H4.94796L7.70538 5.38991ZM11.971 8.78034C13.4792 9.19399 14.7741 10.0582 15.7187 11.2179L18.8722 5.49332C19.0016 5.27911 18.994 5.03535 18.8492 4.81376L16.2671 0.9949L11.971 8.78034Z" fill="white"/>
</svg>
