<?xml version="1.0" encoding="UTF-8"?>
<!--Generator: Apple Native CoreSVG 326-->
<!DOCTYPE svg
PUBLIC "-//W3C//DTD SVG 1.1//EN"
       "http://www.w3.org/Graphics/SVG/1.1/DTD/svg11.dtd">
<svg version="1.1" xmlns="http://www.w3.org/2000/svg" xmlns:xlink="http://www.w3.org/1999/xlink" viewBox="0 0 24.0688 23.7129">
 <g>
  <rect height="23.7129" opacity="0" width="24.0688" x="0" y="0"/>
  <path d="M23.6997 11.8521C23.6997 18.3823 18.3867 23.6997 11.8477 23.6997C5.31299 23.6997 0 18.3823 0 11.8521C0 5.31299 5.31299 0 11.8477 0C18.3867 0 23.6997 5.31299 23.6997 11.8521ZM9.38672 15.3853L7.29492 17.4551C6.96973 17.7671 7.01367 18.1978 7.29053 18.4482C7.55859 18.6636 7.93213 18.6636 8.24854 18.3604L10.248 16.374C10.4326 16.1938 10.4766 16.1543 10.5732 15.8774L11.417 13.7417L11.1621 13.5967C10.7578 13.3682 10.3667 13.1353 10.1206 12.7881ZM11.606 8.01562L9.42188 8.16504C9.06592 8.19141 8.80664 8.43311 8.7583 8.80664L8.45947 11.0215C8.40234 11.417 8.61328 11.7114 8.98242 11.7554C9.34277 11.7861 9.58008 11.562 9.646 11.1621L9.89648 9.38232L10.7534 9.3252C10.9204 9.31201 11.083 9.43066 11.0215 9.63721L10.5161 11.4126C10.2041 12.4937 10.9116 12.7969 11.4565 13.0957L13.7681 14.3965L12.2827 15.6797C11.9575 15.9653 11.9355 16.3477 12.1641 16.5981C12.3926 16.8574 12.7705 16.8794 13.1177 16.5938L15.2622 14.7656C15.5786 14.5063 15.5215 13.9482 15.1523 13.7021L12.8452 12.1992L13.3022 10.6172C13.3506 10.415 13.5791 10.3931 13.689 10.5645L14.3877 11.562C14.5547 11.8125 14.8755 11.896 15.1479 11.7817L17.1079 10.9028C17.4814 10.7358 17.6177 10.4062 17.4551 10.0723C17.3057 9.74268 16.9805 9.6416 16.6113 9.8042L15.0776 10.4897L14.0317 9.02637C13.4604 8.23975 12.7441 7.93213 11.606 8.01562ZM12.2212 6.28857C12.2212 7.05322 12.8452 7.69043 13.6143 7.69043C14.3877 7.69043 15.0029 7.05322 15.0029 6.28857C15.0029 5.51514 14.3877 4.89551 13.6143 4.89551C12.8452 4.89551 12.2212 5.51514 12.2212 6.28857Z" fill="white"/>
 </g>
</svg>
