<svg width="19" height="25" viewBox="0 0 19 25" fill="none" xmlns="http://www.w3.org/2000/svg">
<g clip-path="url(#clip0_1101_8242)">
<path d="M11.8889 5.03251C13.2907 5.03251 14.4232 3.90476 14.4232 2.51838C14.4232 1.12776 13.2907 0 11.8889 0C10.4872 0 9.3504 1.12776 9.3504 2.51838C9.3504 3.90476 10.4872 5.03251 11.8889 5.03251ZM7.96575 14.7923L12.1667 17.1368L9.47006 19.4347C8.87175 19.9435 8.82902 20.6515 9.24356 21.1094C9.67092 21.5801 10.3803 21.6266 11.0086 21.0966L14.8933 17.8152C15.4659 17.3276 15.3634 16.3101 14.6882 15.8691L10.5128 13.16L11.3333 10.3236C11.4317 9.9675 11.8248 9.92086 12.0385 10.2304L13.2821 12.0322C13.5984 12.4816 14.171 12.6427 14.6796 12.418L18.2481 10.8366C18.9191 10.5399 19.1755 9.9463 18.8764 9.33579C18.5858 8.74223 18.0002 8.55992 17.3335 8.85247L14.5642 10.0692L12.6496 7.44912C11.6069 6.02459 10.3205 5.46495 8.24354 5.61757L4.27761 5.89741C3.62802 5.94403 3.15792 6.37648 3.06817 7.05483L2.53398 11.0359C2.4314 11.7736 2.80749 12.2951 3.48272 12.3672C4.14513 12.4307 4.58531 12.0365 4.69216 11.3072L5.15797 8.11475L6.68794 8.00877C7.00845 7.98333 7.27769 8.19955 7.17513 8.55569L6.26485 11.7566C5.69645 13.7111 6.99137 14.2453 7.96575 14.7923ZM0.41426 24.4206C0.892906 24.8318 1.58096 24.8276 2.15362 24.2723L5.79902 20.6939C6.12382 20.3718 6.19219 20.2868 6.37595 19.8162L7.84182 16.0557L7.38881 15.8055C6.52553 15.3307 5.90586 14.8601 5.49559 14.3471L4.20496 18.9005L0.42708 22.6145C-0.175499 23.2038 -0.102848 23.9755 0.41426 24.4206Z" fill="white"/>
</g>
<defs>
<clipPath id="clip0_1101_8242">
<rect width="19" height="24.87" fill="white"/>
</clipPath>
</defs>
</svg>
