<svg width="20" height="21" viewBox="0 0 20 21" fill="none" xmlns="http://www.w3.org/2000/svg">
<path d="M11.9232 11.8108C10.8678 12.768 10.1938 14.1977 10.1938 15.7831C10.1938 16.2303 10.2472 16.6652 10.353 17.0782H4.00725C3.15138 17.0782 2.63843 16.6332 2.63843 15.8988C2.63843 13.8846 5.05016 11.1237 8.83922 11.1237C10.0085 11.1237 11.0469 11.387 11.9232 11.8108ZM11.8149 6.2328C11.8149 8.19831 10.4773 9.7433 8.84205 9.7433C7.20966 9.7433 5.87202 8.19831 5.87202 6.24193C5.87202 4.34041 7.22101 2.80151 8.84205 2.80151C10.4631 2.80151 11.8149 4.32212 11.8149 6.2328Z" fill="white"/>
<path d="M18.849 15.7829C18.849 18.0165 17.1174 19.8784 15.0429 19.8784C12.9598 19.8784 11.2396 18.0256 11.2396 15.7829C11.2396 13.5462 12.9598 11.6934 15.0429 11.6934C17.1288 11.6934 18.849 13.543 18.849 15.7829ZM14.4987 13.7442V15.1977H13.1413C12.8125 15.1977 12.5971 15.4324 12.5971 15.7859C12.5971 16.1425 12.821 16.374 13.1413 16.374H14.4987V17.8398C14.4987 18.1871 14.7142 18.4188 15.0429 18.4188C15.3744 18.4188 15.5899 18.1871 15.5899 17.8398V16.374H16.9473C17.2704 16.374 17.4886 16.1425 17.4886 15.7859C17.4886 15.4324 17.2704 15.1977 16.9473 15.1977H15.5899V13.7442C15.5899 13.3938 15.3744 13.1591 15.0429 13.1591C14.7142 13.1591 14.4987 13.4029 14.4987 13.7442Z" fill="white"/>
</svg>
