<svg width="70" height="70" viewBox="0 0 70 70" fill="none" xmlns="http://www.w3.org/2000/svg">
<rect x="2" y="2" width="66" height="65.7446" rx="32.8723" fill="#12436A"/>
<rect x="2" y="2" width="66" height="65.7446" rx="32.8723" stroke="url(#paint0_angular_479_6044)" stroke-width="4"/>
<path fill-rule="evenodd" clip-rule="evenodd" d="M28.7507 22.2755C29.7649 22.2653 30.6713 22.8676 31.0011 23.7707L34.555 33.5033L44.956 36.6552C45.9211 36.9477 46.5785 37.7893 46.5881 38.7446C46.5977 39.7 45.9572 40.5546 44.9981 40.8664L34.6624 44.2259L31.304 54.0276C30.9924 54.9371 30.0981 55.5575 29.084 55.5676C28.0699 55.5778 27.1634 54.9755 26.8336 54.0724L23.2797 44.3398L12.8787 41.1879C11.9136 40.8954 11.2562 40.0538 11.2466 39.0985C11.2371 38.1431 11.8775 37.2885 12.8366 36.9767L23.1724 33.6172L26.5307 23.8155C26.8423 22.906 27.7366 22.2856 28.7507 22.2755ZM28.8432 31.5136L27.2948 36.0327C27.0669 36.6978 26.5201 37.2234 25.8187 37.4514L21.0534 39.0003L25.8488 40.4535C26.5546 40.6674 27.1118 41.1819 27.353 41.8423L28.9915 46.3295L30.5399 41.8104C30.7678 41.1453 31.3147 40.6197 32.016 40.3918L36.7814 38.8428L31.9859 37.3896C31.2802 37.1757 30.7229 36.6612 30.4818 36.0008L28.8432 31.5136Z" fill="url(#paint1_angular_479_6044)"/>
<path fill-rule="evenodd" clip-rule="evenodd" d="M47.5195 14.0967C48.128 14.0906 48.6719 14.452 48.8697 14.9938L50.7598 20.1699L56.2913 21.8461C56.8704 22.0216 57.2649 22.5266 57.2706 23.0998C57.2763 23.673 56.8921 24.1858 56.3166 24.3728L50.8198 26.1595L49.0337 31.3724C48.8467 31.9181 48.3102 32.2903 47.7017 32.2964C47.0932 32.3025 46.5493 31.9411 46.3515 31.3992L44.4614 26.2232L38.9299 24.5469C38.3508 24.3714 37.9563 23.8664 37.9506 23.2932C37.9449 22.72 38.3291 22.2072 38.9046 22.0202L44.4014 20.2335L46.1875 15.0207C46.3745 14.475 46.911 14.1028 47.5195 14.0967Z" fill="url(#paint2_angular_479_6044)"/>
<path fill-rule="evenodd" clip-rule="evenodd" d="M28.7507 22.2755C29.7649 22.2653 30.6713 22.8676 31.0011 23.7707L34.555 33.5033L44.956 36.6552C45.9211 36.9477 46.5785 37.7893 46.5881 38.7446C46.5977 39.7 45.9572 40.5546 44.9981 40.8664L34.6624 44.2259L31.304 54.0276C30.9924 54.9371 30.0981 55.5575 29.084 55.5676C28.0699 55.5778 27.1634 54.9755 26.8336 54.0724L23.2797 44.3398L12.8787 41.1879C11.9136 40.8954 11.2562 40.0538 11.2466 39.0985C11.2371 38.1431 11.8775 37.2885 12.8366 36.9767L23.1724 33.6172L26.5307 23.8155C26.8423 22.906 27.7366 22.2856 28.7507 22.2755ZM28.8432 31.5136L27.2948 36.0327C27.0669 36.6978 26.5201 37.2234 25.8187 37.4514L21.0534 39.0003L25.8488 40.4535C26.5546 40.6674 27.1118 41.1819 27.353 41.8423L28.9915 46.3295L30.5399 41.8104C30.7678 41.1453 31.3147 40.6197 32.016 40.3918L36.7814 38.8428L31.9859 37.3896C31.2802 37.1757 30.7229 36.6612 30.4818 36.0008L28.8432 31.5136Z" stroke="url(#paint3_angular_479_6044)" stroke-width="1.2" stroke-linecap="round" stroke-linejoin="round"/>
<path fill-rule="evenodd" clip-rule="evenodd" d="M47.5195 14.0967C48.128 14.0906 48.6719 14.452 48.8697 14.9938L50.7598 20.1699L56.2913 21.8461C56.8704 22.0216 57.2649 22.5266 57.2706 23.0998C57.2763 23.673 56.8921 24.1858 56.3166 24.3728L50.8198 26.1595L49.0337 31.3724C48.8467 31.9181 48.3102 32.2903 47.7017 32.2964C47.0932 32.3025 46.5493 31.9411 46.3515 31.3992L44.4614 26.2232L38.9299 24.5469C38.3508 24.3714 37.9563 23.8664 37.9506 23.2932C37.9449 22.72 38.3291 22.2072 38.9046 22.0202L44.4014 20.2335L46.1875 15.0207C46.3745 14.475 46.911 14.1028 47.5195 14.0967Z" stroke="url(#paint4_angular_479_6044)" stroke-width="1.2" stroke-linecap="round" stroke-linejoin="round"/>
<defs>
<radialGradient id="paint0_angular_479_6044" cx="0" cy="0" r="1" gradientUnits="userSpaceOnUse" gradientTransform="translate(35 34.8723) rotate(90) scale(34.8723 44.2628)">
<stop offset="0.167334" stop-color="#BC82F3"/>
<stop offset="0.236537" stop-color="#F5B9EA"/>
<stop offset="0.351842" stop-color="#8D99FF"/>
<stop offset="0.58147" stop-color="#AA6EEE"/>
<stop offset="0.696976" stop-color="#FF6778"/>
<stop offset="0.809487" stop-color="#FFBA71"/>
<stop offset="0.924051" stop-color="#C686FF"/>
</radialGradient>
<radialGradient id="paint1_angular_479_6044" cx="0" cy="0" r="1" gradientUnits="userSpaceOnUse" gradientTransform="translate(34.2964 34.8722) rotate(89.4264) scale(20.6422 23.0909)">
<stop offset="0.17" stop-color="#BC82F3"/>
<stop offset="0.24" stop-color="#F5B9EA"/>
<stop offset="0.35" stop-color="#8D99FF"/>
<stop offset="0.58" stop-color="#C1A9F5"/>
<stop offset="0.7" stop-color="#FF6778"/>
<stop offset="0.81" stop-color="#F07897"/>
<stop offset="0.92" stop-color="#C686FF"/>
</radialGradient>
<radialGradient id="paint2_angular_479_6044" cx="0" cy="0" r="1" gradientUnits="userSpaceOnUse" gradientTransform="translate(34.2964 34.8722) rotate(89.4264) scale(20.6422 23.0909)">
<stop offset="0.17" stop-color="#BC82F3"/>
<stop offset="0.24" stop-color="#F5B9EA"/>
<stop offset="0.35" stop-color="#8D99FF"/>
<stop offset="0.58" stop-color="#C1A9F5"/>
<stop offset="0.7" stop-color="#FF6778"/>
<stop offset="0.81" stop-color="#F07897"/>
<stop offset="0.92" stop-color="#C686FF"/>
</radialGradient>
<radialGradient id="paint3_angular_479_6044" cx="0" cy="0" r="1" gradientUnits="userSpaceOnUse" gradientTransform="translate(34.2964 34.8722) rotate(89.4264) scale(20.6422 29.202)">
<stop offset="0.167334" stop-color="#BC82F3"/>
<stop offset="0.236537" stop-color="#F5B9EA"/>
<stop offset="0.351842" stop-color="#8D99FF"/>
<stop offset="0.58147" stop-color="#AA6EEE"/>
<stop offset="0.696976" stop-color="#FF6778"/>
<stop offset="0.809487" stop-color="#FFBA71"/>
<stop offset="0.924051" stop-color="#C686FF"/>
</radialGradient>
<radialGradient id="paint4_angular_479_6044" cx="0" cy="0" r="1" gradientUnits="userSpaceOnUse" gradientTransform="translate(34.2964 34.8722) rotate(89.4264) scale(20.6422 29.202)">
<stop offset="0.167334" stop-color="#BC82F3"/>
<stop offset="0.236537" stop-color="#F5B9EA"/>
<stop offset="0.351842" stop-color="#8D99FF"/>
<stop offset="0.58147" stop-color="#AA6EEE"/>
<stop offset="0.696976" stop-color="#FF6778"/>
<stop offset="0.809487" stop-color="#FFBA71"/>
<stop offset="0.924051" stop-color="#C686FF"/>
</radialGradient>
</defs>
</svg>
