<?xml version="1.0" encoding="UTF-8"?>
<!--Generator: Apple Native CoreSVG 326-->
<!DOCTYPE svg
PUBLIC "-//W3C//DTD SVG 1.1//EN"
       "http://www.w3.org/Graphics/SVG/1.1/DTD/svg11.dtd">
<svg version="1.1" xmlns="http://www.w3.org/2000/svg" xmlns:xlink="http://www.w3.org/1999/xlink" viewBox="0 0 23.0273 24.1084">
 <g>
  <rect height="24.1084" opacity="0" width="23.0273" x="0" y="0"/>
  <path d="M0 18.123C0 19.2041 0.786621 19.9292 2.02148 19.9292L6.68408 19.9292C6.77197 22.0781 8.58691 24.0908 11.3291 24.0908C14.0713 24.0908 15.8862 22.0825 15.9741 19.9292L20.6323 19.9292C21.8716 19.9292 22.6582 19.2041 22.6582 18.123C22.6582 16.8354 21.6123 15.7896 20.5488 14.8228C19.6436 13.9922 19.4897 12.3882 19.2612 10.4062C19.002 6.45117 17.6528 3.65186 14.7832 2.64111C14.3042 1.09424 13.0122 0 11.3291 0C9.6416 0 8.34961 1.09424 7.875 2.64111C5.00537 3.65186 3.65625 6.45117 3.39697 10.4062C3.16406 12.3882 3.01465 13.9922 2.10938 14.8228C1.0415 15.7896 0 16.8354 0 18.123ZM3.19482 17.5078L3.19482 17.3804C3.57275 17.0376 4.22314 16.4707 4.75928 15.8423C5.5459 14.9194 5.84473 12.9551 6.00732 10.8325C6.20947 6.82031 7.51025 5.33057 9.21094 4.86914C9.49219 4.79883 9.65479 4.67139 9.68994 4.33301C9.77783 3.2168 10.3799 2.49609 11.3291 2.49609C12.2739 2.49609 12.8804 3.2168 12.9639 4.33301C13.0034 4.67139 13.166 4.79883 13.4473 4.86914C15.1479 5.33057 16.4487 6.82031 16.6509 10.8325C16.8135 12.9551 17.1211 14.9194 17.8989 15.8423C18.4263 16.4707 19.0327 17.0376 19.4106 17.3804L19.4106 17.5078ZM9.17139 19.9292L13.4824 19.9292C13.4033 21.23 12.5288 22.0957 11.3291 22.0957C10.1294 22.0957 9.25488 21.23 9.17139 19.9292Z" fill="black"/>
 </g>
</svg>
