<svg width="33" height="35" viewBox="0 0 33 35" fill="none" xmlns="http://www.w3.org/2000/svg">
<path d="M0.890625 25.9062C0.890625 24.0781 2.29688 22.625 3.8125 21.2969C5.04688 20.2344 5.28125 18.1875 5.60938 15.4062C5.98438 9.90625 7.92188 5.98438 11.875 4.5625C12.5938 2.42188 14.4062 0.921875 16.7812 0.921875C19.1562 0.921875 20.9688 2.42188 21.6875 4.5625C25.6406 5.98438 27.5781 9.90625 27.9531 15.4062C28.2812 18.1875 28.5156 20.2344 29.75 21.2969C31.2656 22.625 32.6719 24.0781 32.6719 25.9062C32.6719 27.5469 31.4844 28.6562 29.625 28.6562H23.4844C23.3594 31.6406 20.7656 34.5156 16.7812 34.5156C12.7969 34.5156 10.2031 31.625 10.0781 28.6562H3.9375C2.0625 28.6562 0.890625 27.5469 0.890625 25.9062ZM5.84375 24.9062H27.625V24.7344C27 24.3125 26.2344 23.625 25.5469 22.7812C24.5781 21.5938 24.0938 18.9219 23.8906 16.1094C23.625 10.6094 21.8281 8.60938 19.5781 8C19.2188 7.92188 19 7.75 18.9531 7.26562C18.8281 5.75 18.0312 4.8125 16.7812 4.8125C15.5312 4.8125 14.7344 5.75 14.6094 7.26562C14.5625 7.75 14.3438 7.92188 13.9844 8C11.7344 8.60938 9.9375 10.6094 9.65625 16.1094C9.45312 18.9219 9 21.5938 8.01562 22.7812C7.32812 23.625 6.46875 24.3125 5.84375 24.7344V24.9062ZM13.9375 28.6562C14.0469 30.3438 15.2031 31.4688 16.7812 31.4688C18.3594 31.4688 19.5156 30.3438 19.625 28.6562H13.9375Z" fill="black"/>
</svg>
