<svg width="33" height="35" viewBox="0 0 33 35" fill="none" xmlns="http://www.w3.org/2000/svg">
<path d="M0.890625 25.9062C0.890625 24.0781 2.29688 22.625 3.8125 21.2969C5.04688 20.2344 5.28125 18.1875 5.60938 15.4062C5.98438 9.90625 7.92188 5.98438 11.875 4.5625C12.5938 2.42188 14.4062 0.921875 16.7812 0.921875C17.6719 0.921875 18.5156 1.14062 19.2344 1.54688C18.3281 2.45312 17.6719 3.60938 17.4219 4.90625C17.2344 4.82812 17.0156 4.8125 16.7812 4.8125C15.5312 4.8125 14.75 5.75 14.6094 7.26562C14.5625 7.75 14.3438 7.92188 13.9844 8C11.7188 8.59375 9.9375 10.6094 9.65625 16.1094C9.45312 18.9219 9 21.5938 8.01562 22.7812C7.32812 23.625 6.46875 24.3125 5.84375 24.7344V24.9062H27.625V24.7344C27 24.3125 26.2344 23.625 25.5469 22.7812C24.5781 21.5938 24.0781 18.9219 23.8906 16.1094C23.875 15.4375 23.8281 14.8438 23.7812 14.3125C25.125 14.5938 26.6094 14.4062 27.8438 13.7969C27.9062 14.4062 27.9688 15.0312 28 15.7188C28.3438 18.2812 28.5625 20.25 29.75 21.2969C31.2656 22.625 32.6719 24.0781 32.6719 25.9062C32.6719 27.5469 31.4844 28.6562 29.625 28.6562H23.4844C23.3594 31.625 20.7656 34.5156 16.7812 34.5156C12.7969 34.5156 10.2031 31.625 10.0781 28.6562H3.9375C2.0625 28.6562 0.890625 27.5469 0.890625 25.9062ZM24.7812 12.1719C21.8594 12.1719 19.4375 9.75 19.4375 6.82812C19.4375 3.89062 21.8594 1.46875 24.7812 1.46875C27.7031 1.46875 30.1406 3.89062 30.1406 6.82812C30.1406 9.75 27.7031 12.1719 24.7812 12.1719ZM13.9375 28.6562C14.0469 30.3438 15.2031 31.4688 16.7812 31.4688C18.3594 31.4688 19.5156 30.3438 19.625 28.6562H13.9375Z" fill="black"/>
</svg>
