<svg width="20" height="28" viewBox="0 0 20 28" fill="none" xmlns="http://www.w3.org/2000/svg">
<path d="M7.48764 1.10964C7.3632 1.20297 7.26986 1.66964 7.26986 2.1052C7.26986 3.25631 6.08764 5.58964 3.78542 9.04297C0.674309 13.6474 0.0209755 16.9763 1.63875 20.1185C2.78986 22.3896 6.74098 25.3141 8.29653 25.0963C9.3232 24.9407 9.3232 23.9763 8.23431 22.8563C7.14542 21.7363 6.33653 19.963 6.33653 18.6874C6.33653 17.6607 7.39431 15.9496 8.4832 15.2341C9.19875 14.7674 9.19875 14.7985 8.98098 15.483C8.54542 16.883 9.10542 18.1274 11.2832 20.5541C12.4343 21.8919 13.5232 23.4163 13.6788 23.9763C14.1454 25.5319 14.9854 25.4696 16.5721 23.7585C18.6876 21.4563 19.2476 19.9007 19.2165 16.603C19.1543 12.9941 17.7854 8.57631 16.6965 8.42075C16.1676 8.32742 15.8876 8.57631 15.5143 9.50964C15.2343 10.163 14.7988 11.0341 14.5188 11.4696C14.021 12.2163 14.021 12.2163 13.5854 10.2252C12.6832 5.74519 8.73209 -0.165916 7.48764 1.10964Z" fill="#FFFBFB"/>
</svg>
