<svg width="26" height="28" viewBox="0 0 26 28" fill="none" xmlns="http://www.w3.org/2000/svg">
<g clip-path="url(#clip0_962_7660)">
<path d="M20.0675 2.3031C23.7696 3.39397 25.2516 4.94106 24.668 7.1738C24.3448 8.4101 23.8898 9.68862 23.1796 10.7343C19.2281 16.5519 14.485 21.6305 8.15661 24.8601C4.97958 26.4815 2.20269 25.7758 1.24387 22.4903C0.866463 21.1971 0.827739 19.7707 0.837744 18.4064C0.855239 16.021 2.01897 13.4721 3.39787 12.2318C4.05205 13.5992 4.65179 15.0472 5.44352 16.3813C5.66199 16.7495 6.45263 16.778 6.98073 16.9624C6.86036 16.4339 6.90685 15.7596 6.59292 15.4001C4.3275 12.8056 4.87705 8.42657 7.87484 6.8748C8.00229 7.426 8.21226 7.93672 8.22337 8.45172C8.26873 10.5541 9.35729 12.1982 10.5584 13.7667C10.7587 14.0283 11.4298 13.9294 11.8834 13.9971C11.8375 13.5833 11.9515 13 11.7207 12.782C9.60521 10.7838 9.61626 8.18398 9.97104 5.68913C10.0867 4.87609 11.5445 4.25393 12.4694 3.47646C13.0487 5.41544 13.4687 7.12813 14.0884 8.76523C14.3966 9.57938 15.0623 10.2943 16.0739 9.11726C14.5937 7.69759 14.666 5.8553 14.6643 3.9848C14.6635 3.06573 15.0744 2.72438 15.8172 2.64126C17.1807 2.4887 18.5525 2.41151 20.0675 2.3031Z" fill="white"/>
</g>
<defs>
<clipPath id="clip0_962_7660">
<rect width="24.9796" height="27" fill="white" transform="translate(0.836426 0.5)"/>
</clipPath>
</defs>
</svg>
