<?xml version="1.0" encoding="UTF-8"?>
<!--Generator: Apple Native CoreSVG 326-->
<!DOCTYPE svg
PUBLIC "-//W3C//DTD SVG 1.1//EN"
       "http://www.w3.org/Graphics/SVG/1.1/DTD/svg11.dtd">
<svg version="1.1" xmlns="http://www.w3.org/2000/svg" xmlns:xlink="http://www.w3.org/1999/xlink" viewBox="0 0 19.9056 25.7783">
 <g>
  <rect height="25.7783" opacity="0" width="19.9056" x="0" y="0"/>
  <path d="M12.2248 5.21631C13.6662 5.21631 14.8308 4.04736 14.8308 2.61035C14.8308 1.16895 13.6662 0 12.2248 0C10.7834 0 9.61444 1.16895 9.61444 2.61035C9.61444 4.04736 10.7834 5.21631 12.2248 5.21631ZM8.19062 15.3325L12.5104 17.7627L9.73749 20.1445C9.12226 20.6719 9.07831 21.4058 9.50458 21.8804C9.94403 22.3682 10.6735 22.4165 11.3195 21.8672L15.3142 18.4658C15.903 17.9604 15.7975 16.9058 15.1032 16.4487L10.8098 13.6406L11.6535 10.7007C11.7546 10.3315 12.1589 10.2832 12.3786 10.604L13.6574 12.4717C13.9826 12.9375 14.5715 13.1045 15.0944 12.8716L18.7639 11.2324C19.4538 10.9248 19.7175 10.3096 19.4099 9.67676C19.111 9.06152 18.509 8.87256 17.8234 9.17578L14.9758 10.437L13.007 7.72119C11.9348 6.24463 10.612 5.66455 8.47626 5.82275L4.39813 6.11279C3.73017 6.16113 3.24677 6.60938 3.15448 7.3125L2.60517 11.439C2.4997 12.2036 2.88642 12.7441 3.58075 12.8188C4.2619 12.8848 4.71454 12.4761 4.8244 11.7202L5.30341 8.41113L6.87665 8.30127C7.20624 8.2749 7.4831 8.49902 7.37763 8.86816L6.44159 12.186C5.85712 14.2119 7.18866 14.7656 8.19062 15.3325ZM0.425479 25.3125C0.917666 25.7388 1.62519 25.7344 2.21405 25.1587L5.96259 21.4497C6.29657 21.1157 6.36688 21.0278 6.55585 20.54L8.06317 16.6421L7.59735 16.3828C6.70966 15.8906 6.07245 15.4028 5.65058 14.8711L4.32343 19.5908L0.438662 23.4404C-0.180967 24.0513-0.10626 24.8511 0.425479 25.3125Z" fill="white"/>
 </g>
</svg>
