<?xml version="1.0" encoding="UTF-8"?>
<!--Generator: Apple Native CoreSVG 326-->
<!DOCTYPE svg
PUBLIC "-//W3C//DTD SVG 1.1//EN"
       "http://www.w3.org/Graphics/SVG/1.1/DTD/svg11.dtd">
<svg version="1.1" xmlns="http://www.w3.org/2000/svg" xmlns:xlink="http://www.w3.org/1999/xlink" viewBox="0 0 28.1602 20.6104">
 <g>
  <rect height="20.6104" opacity="0" width="28.1602" x="0" y="0"/>
  <path d="M2.12256 20.5884L17.1079 20.5884C18.4351 20.5884 19.2305 19.9468 19.2305 18.8877C19.2305 15.9829 15.4863 12.0015 9.61523 12.0015C3.73975 12.0015 0 15.9829 0 18.8877C0 19.9468 0.79541 20.5884 2.12256 20.5884ZM9.61963 10.0107C12.1553 10.0107 14.2295 7.78271 14.2295 4.94824C14.2295 2.19287 12.1333 0 9.61963 0C7.10596 0 5.01416 2.21924 5.01416 4.96143C5.01416 7.78271 7.08838 10.0107 9.61963 10.0107Z" fill="white"/>
  <path d="M21.4541 10.7798C21.8804 10.7798 22.2583 10.5601 22.5044 10.1821L27.5229 2.43018C27.6812 2.18408 27.791 1.90723 27.791 1.66113C27.791 1.05908 27.2637 0.632812 26.6836 0.632812C26.3057 0.632812 25.9761 0.839355 25.7256 1.25244L21.4233 8.13867L19.3755 5.62061C19.1118 5.29102 18.835 5.15918 18.479 5.15918C17.8813 5.15918 17.4023 5.63379 17.4023 6.23145C17.4023 6.52148 17.499 6.77637 17.7144 7.04443L20.3555 10.1997C20.6719 10.582 21.0146 10.7798 21.4541 10.7798Z" fill="white"/>
 </g>
</svg>
