<svg width="21" height="22" viewBox="0 0 21 22" fill="none" xmlns="http://www.w3.org/2000/svg">
<path d="M0.711693 18.0157C0.151203 20.2876 1.13963 21.6334 3.35509 21.6334H17.7574C19.9728 21.6334 20.9651 20.2876 20.4008 18.0157L18.2535 9.35188C17.852 7.69621 16.6818 6.79278 14.9739 6.79278H6.1386C4.42684 6.79278 3.26419 7.69621 2.85518 9.35188L0.711693 18.0157ZM9.43716 8.49758H11.6791V5.05772H9.43716V8.49758ZM10.5543 6.19174C12.2547 6.19174 13.6673 4.79312 13.6673 3.10722C13.6673 1.40618 12.2434 0 10.5543 0C8.8653 0 7.45272 1.40996 7.45272 3.10722C7.45272 4.79312 8.8653 6.19174 10.5543 6.19174ZM10.5543 4.36597C9.87267 4.36597 9.28946 3.78763 9.28946 3.10722C9.28946 2.41924 9.86889 1.82955 10.5543 1.82955C11.2474 1.82955 11.8306 2.41924 11.8306 3.10722C11.8306 3.78763 11.2474 4.36597 10.5543 4.36597Z" fill="white"/>
</svg>
