<svg width="30" height="31" viewBox="0 0 30 31" fill="none" xmlns="http://www.w3.org/2000/svg">
<path d="M28.7004 11.8567C28.7004 13.3419 28.1104 14.7663 27.0602 15.8165C26.01 16.8667 24.5855 17.4567 23.1003 17.4567C21.7361 17.4651 20.4174 16.9661 19.4004 16.0567C18.7681 17.2406 17.8174 18.2242 16.6558 18.8965C15.4941 19.5688 14.1677 19.903 12.8262 19.8614C11.4846 19.8198 10.1815 19.404 9.06368 18.6611C7.94591 17.9181 7.05807 16.8775 6.50036 15.6567C5.95031 16.0603 5.28244 16.2712 4.60034 16.2567C4.12758 16.2567 3.65945 16.1635 3.22268 15.9826C2.78591 15.8017 2.38906 15.5365 2.05477 15.2022C1.72048 14.868 1.4553 14.4711 1.27438 14.0343C1.09346 13.5975 1.00036 13.1294 1.00036 12.6567C0.990196 11.9486 1.19503 11.2542 1.58782 10.665C1.98061 10.0758 2.54286 9.6196 3.20034 9.35666C3.03018 8.80702 2.96241 8.2308 3.00036 7.65667C3.00918 6.39453 3.40298 5.16514 4.12918 4.13281C4.85537 3.10048 5.87936 2.31437 7.06426 1.87954C8.24917 1.44472 9.53853 1.38188 10.7601 1.69944C11.9817 2.017 13.0772 2.69983 13.9004 3.65667C15.0628 2.81151 16.4631 2.3564 17.9004 2.35666C19.1588 2.35596 20.3877 2.73826 21.4237 3.45274C22.4597 4.16723 23.2538 5.18007 23.7004 6.35666C25.0707 6.48175 26.3444 7.11598 27.2701 8.13419C28.1957 9.1524 28.7061 10.4806 28.7004 11.8567Z" stroke="white" stroke-width="1.5" stroke-linecap="round" stroke-linejoin="round"/>
<path d="M23.1004 17.4565C23.1004 17.4565 18.2004 18.3565 18.2004 29.4565H13.1004C13.1004 29.4565 13.4004 21.7565 8.40039 18.0565" stroke="white" stroke-width="1.5" stroke-linecap="round" stroke-linejoin="round"/>
</svg>
