<svg width="27" height="29" viewBox="0 0 27 29" fill="none" xmlns="http://www.w3.org/2000/svg">
<path d="M18.8999 2.89999C19.2115 2.47674 19.4482 2.00323 19.5999 1.5C20.4503 1.68089 21.2388 2.08041 21.8877 2.65912C22.5366 3.23783 23.0233 3.97573 23.2999 4.8C23.4979 5.51659 23.5988 6.25654 23.5999 7C23.4093 8.27242 22.7707 9.43499 21.799 10.2783C20.8273 11.1217 19.5864 11.5904 18.2999 11.6H6.69989C5.8315 11.5823 5.00509 11.223 4.3999 10.6C3.77077 9.95809 3.4127 9.09872 3.3999 8.2C3.39952 7.31532 3.74395 6.46533 4.36011 5.83051C4.97626 5.19568 5.8156 4.82602 6.69989 4.8H14.7999C15.5856 4.83561 16.3683 4.68155 17.082 4.35085C17.7956 4.02014 18.4192 3.5225 18.8999 2.89999Z" stroke="#D9D9D9" stroke-width="1.5" stroke-linecap="round" stroke-linejoin="round"/>
<path d="M22.1 11.6001H4.90002C2.74611 11.6001 1 13.326 1 15.4551C1 17.5842 2.74611 19.3101 4.90002 19.3101H22.1C24.2539 19.3101 26 17.5842 26 15.4551C26 13.326 24.2539 11.6001 22.1 11.6001Z" stroke="#D9D9D9" stroke-width="1.5" stroke-linecap="round" stroke-linejoin="round"/>
<path d="M22.4999 19.3H4.3999L5.3999 28H21.4999L22.4999 19.3Z" stroke="#D9D9D9" stroke-width="1.5" stroke-linecap="round" stroke-linejoin="round"/>
<path d="M11 28.0001V23.6001" stroke="#D9D9D9" stroke-width="1.5" stroke-linecap="round" stroke-linejoin="round"/>
<path d="M16 28.0001V23.6001" stroke="#D9D9D9" stroke-width="1.5" stroke-linecap="round" stroke-linejoin="round"/>
</svg>
