<svg width="29" height="23" viewBox="0 0 29 23" fill="none" xmlns="http://www.w3.org/2000/svg">
<path d="M24.3906 9.10449C24.7969 9.10449 25.1406 8.96387 25.4219 8.68262C25.7109 8.39355 25.8555 8.0498 25.8555 7.65137C25.8555 7.24512 25.7109 6.90137 25.4219 6.62012C25.1406 6.33887 24.7969 6.19824 24.3906 6.19824C23.9922 6.19824 23.6484 6.33887 23.3594 6.62012C23.0781 6.90137 22.9375 7.24512 22.9375 7.65137C22.9375 8.0498 23.0781 8.39355 23.3594 8.68262C23.6484 8.96387 23.9922 9.10449 24.3906 9.10449ZM3.78906 22.4639C2.5625 22.4639 1.64062 22.1592 1.02344 21.5498C0.414062 20.9482 0.109375 20.042 0.109375 18.8311V6.56152C0.109375 5.3584 0.414062 4.45605 1.02344 3.85449C1.64062 3.24512 2.5625 2.94043 3.78906 2.94043H7.05859C7.51953 2.94043 7.85938 2.88574 8.07812 2.77637C8.29688 2.65918 8.53516 2.45605 8.79297 2.16699L9.73047 1.1123C10.0273 0.791992 10.3477 0.545898 10.6914 0.374023C11.043 0.202148 11.5195 0.116211 12.1211 0.116211H16.7969C17.3984 0.116211 17.875 0.202148 18.2266 0.374023C18.5781 0.545898 18.8984 0.791992 19.1875 1.1123L20.125 2.16699C20.3047 2.3623 20.4648 2.51855 20.6055 2.63574C20.7539 2.74512 20.9219 2.82324 21.1094 2.87012C21.2969 2.91699 21.5469 2.94043 21.8594 2.94043H25.2109C26.4297 2.94043 27.3477 3.24512 27.9648 3.85449C28.582 4.45605 28.8906 5.3584 28.8906 6.56152V18.8311C28.8906 20.042 28.582 20.9482 27.9648 21.5498C27.3477 22.1592 26.4297 22.4639 25.2109 22.4639H3.78906ZM14.5 19.0068C15.3828 19.0068 16.2109 18.8428 16.9844 18.5146C17.7578 18.1865 18.4375 17.7295 19.0234 17.1436C19.6094 16.5576 20.0664 15.8779 20.3945 15.1045C20.7227 14.3311 20.8867 13.4951 20.8867 12.5967C20.8867 11.4092 20.6016 10.3311 20.0312 9.3623C19.4609 8.39355 18.6914 7.62402 17.7227 7.05371C16.7539 6.4834 15.6797 6.19824 14.5 6.19824C13.6094 6.19824 12.7773 6.3623 12.0039 6.69043C11.2305 7.01855 10.5508 7.47559 9.96484 8.06152C9.38672 8.64746 8.92969 9.32715 8.59375 10.1006C8.26562 10.874 8.10156 11.7061 8.10156 12.5967C8.10156 13.4951 8.26562 14.3311 8.59375 15.1045C8.92969 15.8779 9.38672 16.5576 9.96484 17.1436C10.5508 17.7295 11.2305 18.1865 12.0039 18.5146C12.7773 18.8428 13.6094 19.0068 14.5 19.0068ZM14.5 17.2256C13.6484 17.2256 12.8711 17.0186 12.168 16.6045C11.4727 16.1904 10.9141 15.6357 10.4922 14.9404C10.0781 14.2373 9.87109 13.4561 9.87109 12.5967C9.87109 11.7451 10.0781 10.9717 10.4922 10.2764C10.9141 9.57324 11.4727 9.01465 12.168 8.60059C12.8711 8.17871 13.6484 7.96777 14.5 7.96777C15.3516 7.96777 16.125 8.17871 16.8203 8.60059C17.5234 9.01465 18.082 9.57324 18.4961 10.2764C18.9102 10.9717 19.1172 11.7451 19.1172 12.5967C19.1172 13.4561 18.9102 14.2373 18.4961 14.9404C18.082 15.6357 17.5234 16.1904 16.8203 16.6045C16.125 17.0186 15.3516 17.2256 14.5 17.2256Z" fill="white"/>
</svg>
