<svg width="22" height="25" viewBox="0 0 22 25" fill="none" xmlns="http://www.w3.org/2000/svg">
<path d="M1.12109 15.3896C0.863281 15.3896 0.644531 15.2959 0.464844 15.1084C0.285156 14.9209 0.195312 14.6982 0.195312 14.4404V10.8896C0.195312 10.6318 0.285156 10.4092 0.464844 10.2217C0.644531 10.0264 0.863281 9.92871 1.12109 9.92871C1.39453 9.92871 1.62109 10.0264 1.80078 10.2217C1.98828 10.4092 2.08203 10.6318 2.08203 10.8896V14.4404C2.08203 14.6982 1.98828 14.9209 1.80078 15.1084C1.62109 15.2959 1.39453 15.3896 1.12109 15.3896ZM5.07031 20.1826C4.80469 20.1826 4.58203 20.0928 4.40234 19.9131C4.22266 19.7256 4.13281 19.499 4.13281 19.2334V6.09668C4.13281 5.83105 4.22266 5.60449 4.40234 5.41699C4.58203 5.22949 4.80469 5.13574 5.07031 5.13574C5.34375 5.13574 5.57031 5.22949 5.75 5.41699C5.92969 5.60449 6.01953 5.83105 6.01953 6.09668V19.2334C6.01953 19.499 5.92969 19.7256 5.75 19.9131C5.57031 20.0928 5.34375 20.1826 5.07031 20.1826ZM9.00781 24.9053C8.74219 24.9053 8.51953 24.8115 8.33984 24.624C8.16797 24.4443 8.08203 24.2217 8.08203 23.9561V1.37402C8.08203 1.1084 8.16797 0.885742 8.33984 0.706055C8.51953 0.518555 8.74219 0.424805 9.00781 0.424805C9.28125 0.424805 9.50781 0.518555 9.6875 0.706055C9.875 0.885742 9.96875 1.1084 9.96875 1.37402V23.9561C9.96875 24.2217 9.875 24.4443 9.6875 24.624C9.50781 24.8115 9.28125 24.9053 9.00781 24.9053ZM12.957 18.7529C12.6914 18.7529 12.4688 18.6631 12.2891 18.4834C12.1094 18.3037 12.0195 18.0811 12.0195 17.8154V7.51465C12.0195 7.24902 12.1094 7.02637 12.2891 6.84668C12.4688 6.65918 12.6914 6.56543 12.957 6.56543C13.2227 6.56543 13.4453 6.65918 13.625 6.84668C13.8125 7.02637 13.9062 7.24902 13.9062 7.51465V17.8154C13.9062 18.0811 13.8125 18.3037 13.625 18.4834C13.4453 18.6631 13.2227 18.7529 12.957 18.7529ZM16.9062 22.3037C16.6328 22.3037 16.4062 22.21 16.2266 22.0225C16.0469 21.8428 15.957 21.624 15.957 21.3662V3.96387C15.957 3.70605 16.0469 3.4834 16.2266 3.2959C16.4062 3.1084 16.6328 3.01465 16.9062 3.01465C17.1719 3.01465 17.3945 3.1084 17.5742 3.2959C17.7539 3.4834 17.8438 3.70605 17.8438 3.96387V21.3662C17.8438 21.624 17.7539 21.8428 17.5742 22.0225C17.3945 22.21 17.1719 22.3037 16.9062 22.3037ZM20.8438 16.3975C20.5703 16.3975 20.3438 16.3076 20.1641 16.1279C19.9922 15.9404 19.9062 15.7178 19.9062 15.46V9.87012C19.9062 9.6123 19.9922 9.38965 20.1641 9.20215C20.3438 9.01465 20.5703 8.9209 20.8438 8.9209C21.1094 8.9209 21.332 9.01465 21.5117 9.20215C21.6992 9.38965 21.793 9.6123 21.793 9.87012V15.46C21.793 15.7178 21.6992 15.9404 21.5117 16.1279C21.332 16.3076 21.1094 16.3975 20.8438 16.3975Z" fill="white"/>
</svg>
