<svg width="310" height="48" viewBox="0 0 310 48" fill="none" xmlns="http://www.w3.org/2000/svg">
<g style="mix-blend-mode:lighten">
<path fill-rule="evenodd" clip-rule="evenodd" d="M306.62 23.283C306.62 23.283 305.45 23.5788 303.256 23.55C301.062 23.5284 297.844 23.7379 293.749 23.7431C289.654 23.7305 284.681 23.7662 278.977 23.8015C273.272 23.8715 266.837 23.9329 259.816 24.0788C252.795 24.1889 246.491 24.4006 238.447 24.6072C236.436 24.727 234.397 25.3306 232.333 26.4431C230.27 27.536 228.181 29.1495 226.069 30.7109C223.958 32.2767 220.521 33.7383 218.366 34.5728C217.289 34.997 216.206 35.2823 215.119 35.4241C214.031 35.5705 212.939 35.5477 211.842 35.4587C209.648 35.2733 207.436 34.7038 205.207 33.7428C204.093 33.2676 202.975 32.705 201.853 32.0815C200.731 31.4499 199.606 30.775 198.477 30.0796C197.348 29.3957 196.216 28.6752 195.08 28.0348C193.945 27.3614 192.806 26.7606 191.664 26.2373C189.381 25.1906 187.087 24.5071 184.783 24.3005C182.479 24.0928 180.167 24.2924 177.847 24.9663C175.527 25.6317 173.201 26.8022 170.87 28.3103C168.539 29.8128 166.203 31.6523 163.865 33.3597C161.527 35.0672 159.187 36.596 156.847 37.6295C154.507 38.6665 152.166 39.2178 149.829 39.2824C149.244 39.2981 148.66 39.3007 148.075 39.14C147.491 38.9916 146.907 38.7232 146.324 38.3427C145.156 37.5651 143.989 36.3285 142.824 34.757C140.493 31.6188 138.166 27.5507 135.847 25.645C134.687 24.6462 133.529 24.1086 132.373 23.9872C131.216 23.857 130.062 24.153 128.911 24.8379C126.607 26.2065 124.312 29.082 122.029 29.9165C121.458 30.155 120.889 30.2874 120.319 30.3346C119.75 30.3665 119.181 30.3631 118.614 30.3451C117.478 30.3059 116.346 30.1852 115.217 29.9664C110.701 29.1313 106.24 26.6324 101.852 25.6422C99.6579 25.1311 97.4823 24.9226 95.3271 25.0041C93.172 25.0781 91.0376 25.4999 88.926 26.1051C86.8142 26.6969 84.7254 27.4084 82.6616 27.8693C80.598 28.3462 78.5595 28.55 76.5484 28.5048C72.5261 28.5495 68.6137 25.2151 64.829 24.8516C63.8829 24.724 62.9447 24.7414 62.015 24.6964C61.0851 24.6644 60.1634 24.6327 59.2504 24.6014C57.4246 24.5386 55.6328 24.477 53.8777 24.4167C50.3673 24.2826 47.0033 24.217 43.8037 24.1285C42.204 24.0874 40.6454 24.0475 39.1302 24.0088C37.615 23.9819 36.1432 23.9558 34.7171 23.9306C29.0129 23.8162 24.04 23.6915 19.9445 23.6703C15.8492 23.6544 12.651 23.5139 10.457 23.5351C8.26313 23.5685 6.28198 23.3349 6.28198 23.3349C6.28198 23.3349 8.26313 23.1264 10.457 23.16C12.651 23.1812 15.859 23.0246 19.9543 23.0087C24.0497 22.9875 29.0178 22.8537 34.722 22.7394C36.148 22.7141 37.6175 22.688 39.1327 22.6612C40.6478 22.6224 42.2053 22.5825 43.805 22.5416C47.0045 22.4529 50.3679 22.3872 53.8782 22.2534C55.6333 22.1931 57.4249 22.1313 59.2509 22.0687C60.1638 22.0372 61.0852 22.0055 62.0151 21.9735C62.9449 21.9287 63.8829 21.9459 64.8291 21.8185C68.6137 21.4548 72.5262 18.1204 76.5484 18.165C78.5596 18.1199 80.5981 18.3239 82.6618 18.8006C84.7254 19.2614 86.8142 19.973 88.926 20.565C91.0376 21.17 93.1722 21.5919 95.3271 21.6658C97.4823 21.7473 99.6579 21.5387 101.852 21.0277C106.24 20.0375 110.701 17.5386 115.217 16.7035C116.346 16.4848 117.478 16.3641 118.614 16.3248C119.181 16.3069 119.75 16.3036 120.319 16.3353C120.889 16.3827 121.458 16.5151 122.029 16.7536C124.312 17.5879 126.607 20.4633 128.911 21.8321C130.062 22.5171 131.216 22.8131 132.373 22.6827C133.529 22.5613 134.687 22.0239 135.847 21.0251C138.166 19.1194 140.493 15.0513 142.824 11.9129C143.989 10.3415 145.156 9.10481 146.324 8.32734C146.907 7.94665 147.491 7.67828 148.075 7.52993C148.66 7.36932 149.244 7.37177 149.829 7.38769C152.166 7.45225 154.507 8.00334 156.847 9.04061C159.187 10.0739 161.527 11.6029 163.865 13.3104C166.203 15.0175 168.539 16.8571 170.87 18.3596C173.201 19.8676 175.527 21.0384 177.847 21.7037C180.167 22.3774 182.479 22.5771 184.783 22.3696C187.087 22.163 189.381 21.4793 191.664 20.4327C192.806 19.9095 193.945 19.3085 195.08 18.6353C196.216 17.9946 197.348 17.2744 198.477 16.5905C199.606 15.8951 200.731 15.2201 201.853 14.5886C202.975 13.9649 204.093 13.4024 205.207 12.9273C207.436 11.9661 209.648 11.3968 211.842 11.2112C212.939 11.1221 214.031 11.0994 215.119 11.246C216.206 11.3875 217.289 11.6731 218.366 12.0971C220.521 12.9318 223.958 14.3933 226.069 15.9589C228.181 17.5204 230.27 19.1339 232.333 20.227C234.397 21.3393 236.436 21.9431 238.447 22.0627C246.491 22.2695 252.795 22.481 259.816 22.5911C266.837 22.7371 273.272 22.7986 278.977 22.8685C284.681 22.9037 289.654 22.9394 293.749 22.9268C297.844 22.932 301.062 23.156 303.256 23.1345C305.45 23.1058 306.62 23.283 306.62 23.283Z" fill="#78D9BA" style="mix-blend-mode:screen"/>
</g>
<g style="mix-blend-mode:screen">
<path fill-rule="evenodd" clip-rule="evenodd" d="M6.28198 23.4518C6.28198 23.4518 7.42925 23.2282 9.62935 23.2754C11.8293 23.3216 15.0821 23.0975 19.1887 23.1365C21.242 23.1529 23.5155 22.891 25.9905 22.911C28.4654 22.9176 31.1421 22.925 34.0021 22.9327C36.8621 22.9264 39.9055 22.9199 43.1139 22.9129C46.3223 22.9064 49.6955 22.8912 53.2156 22.8498C56.7356 22.8144 60.4023 22.7777 64.1974 22.7395C67.9924 22.6792 71.9158 22.6167 75.9491 22.5525C76.9575 22.5366 77.9726 22.5203 78.9945 22.5041C80.0163 22.4782 81.0446 22.5186 82.0794 22.323C83.1142 22.1433 84.155 21.8065 85.202 21.3041C86.2491 20.7901 87.302 20.1339 88.3608 19.3322C90.4785 17.7498 92.6189 15.5784 94.7798 13.6672C96.941 11.7108 99.1226 10.1412 101.323 9.31819C102.423 8.90881 103.527 8.67771 104.636 8.6268C105.745 8.5437 106.858 8.7762 107.975 9.41844C110.21 10.6293 112.46 13.7661 114.724 16.7614L115.574 17.8441C115.858 18.1926 116.141 18.5142 116.425 18.851C116.993 19.5079 117.561 20.0899 118.131 20.5788C119.269 21.5543 120.411 22.1869 121.556 22.3917C122.701 22.605 123.848 22.4584 124.998 21.9077C126.148 21.3599 127.301 20.3982 128.456 19.1585C130.766 16.6687 133.085 13.2481 135.411 11.6417C136.574 10.7995 137.739 10.3574 138.905 10.2939C140.072 10.2498 141.239 10.3028 142.408 10.4484C144.745 10.7316 147.087 11.4394 149.432 12.4856C151.776 13.5442 154.123 14.9034 156.47 16.2381C158.816 17.567 161.163 18.8314 163.507 19.7717C164.68 20.2446 165.851 20.6522 167.022 20.9733C167.607 21.1302 168.193 21.2901 168.778 21.4057C169.362 21.5168 169.947 21.5802 170.531 21.588C172.869 21.6696 175.202 20.6256 177.528 20.1807C179.854 19.7224 182.173 19.9703 184.483 20.7299C186.793 21.4864 189.094 22.6736 191.383 22.9469C193.673 23.2525 195.951 22.9098 198.215 21.841C200.479 20.8039 202.729 19.0955 204.964 18.1185C206.081 17.6172 207.194 17.3007 208.303 17.1573C209.412 17.0247 210.517 17.0579 211.617 17.2043C213.817 17.4851 215.998 18.3989 218.16 19.4879C220.32 20.5695 222.461 21.6696 224.579 22.1879C225.637 22.4636 226.69 22.601 227.737 22.6379C228.784 22.6528 229.825 22.6675 230.86 22.6822C232.929 22.7068 234.973 22.7313 236.99 22.7555C245.057 22.8694 252.684 22.9068 259.724 22.9514C263.244 22.9589 266.617 22.9661 269.825 22.9729C273.034 22.9694 276.077 22.9659 278.937 22.9628C281.797 22.9491 284.474 22.9364 286.949 22.9246C289.424 22.8958 291.67 23.1878 293.723 23.1638C297.83 23.1089 301.093 23.3081 303.293 23.2513C305.493 23.2056 306.657 23.3998 306.657 23.3998C306.657 23.3998 305.484 23.7123 303.284 23.6668C301.084 23.6099 297.857 23.8585 293.751 23.8034C291.697 23.7794 289.424 23.9038 286.949 23.8748C284.474 23.8631 281.797 23.8503 278.937 23.8366C276.077 23.8335 273.034 23.8302 269.825 23.8267C266.617 23.8335 263.244 23.8407 259.724 23.848C252.684 23.8926 245.057 23.9301 236.99 24.0441C234.973 24.0683 232.929 24.0928 230.86 24.1174C229.825 24.132 228.784 24.1468 227.737 24.1617C226.69 24.1986 225.637 24.3359 224.579 24.6115C222.461 25.1299 220.32 26.2299 218.16 27.3116C215.998 28.4007 213.817 29.3143 211.617 29.5951C210.517 29.7417 209.412 29.7749 208.303 29.6423C207.194 29.4988 206.081 29.1824 204.964 28.681C202.729 27.7041 200.479 25.9957 198.215 24.9586C195.951 23.8898 193.673 23.5471 191.383 23.8527C189.094 24.126 186.793 25.313 184.483 26.0697C182.173 26.8293 179.854 27.0772 177.528 26.6187C175.202 26.174 172.869 25.13 170.531 25.2116C169.947 25.2194 169.362 25.2826 168.778 25.3939C168.193 25.5095 167.607 25.6692 167.022 25.8263C165.851 26.1472 164.68 26.555 163.507 27.0279C161.163 27.968 158.816 29.2326 156.47 30.5615C154.123 31.896 151.776 33.2552 149.432 34.314C147.087 35.3601 144.745 36.0678 142.408 36.3512C141.239 36.4968 140.072 36.5496 138.905 36.5055C137.739 36.4422 136.574 35.9999 135.411 35.1579C133.085 33.5515 130.766 30.1309 128.456 27.6409C127.301 26.4012 126.148 25.4395 124.998 24.8919C123.848 24.3412 122.701 24.1944 121.556 24.4078C120.411 24.6125 119.269 25.2452 118.131 26.2208C117.561 26.7095 116.993 27.2917 116.425 27.9486C116.141 28.2854 115.858 28.6068 115.574 28.9555L114.724 30.038C112.46 33.0333 110.21 36.1703 107.975 37.3811C106.858 38.0234 105.745 38.2557 104.636 38.1728C103.527 38.1219 102.423 37.8908 101.323 37.4812C99.1226 36.6583 96.941 35.0888 94.7798 33.1322C92.6189 31.221 90.4785 29.0496 88.3608 27.4672C87.302 26.6657 86.2491 26.0093 85.202 25.4955C84.155 24.993 83.1142 24.6561 82.0794 24.4766C81.0446 24.281 80.0163 24.3212 78.9945 24.2954C77.9726 24.2791 76.9575 24.263 75.9491 24.2469C71.9158 24.1827 67.9924 24.1202 64.1974 24.0599C60.4023 24.0219 56.7356 23.985 53.2156 23.9498C49.6955 23.9084 46.3223 23.8931 43.1139 23.8867C39.9055 23.8797 36.8621 23.873 34.0021 23.8667C31.1421 23.8746 28.4654 23.8818 25.9905 23.8886C23.5155 23.9085 21.242 23.7649 19.1887 23.7815C15.0821 23.8205 11.8553 23.6069 9.65538 23.6531C7.45528 23.7002 6.28198 23.4518 6.28198 23.4518Z" fill="#99233B" style="mix-blend-mode:lighten"/>
</g>
<g style="mix-blend-mode:screen">
<path fill-rule="evenodd" clip-rule="evenodd" d="M6.28198 23.5365C6.28198 23.5365 7.45528 23.3281 9.65538 23.3606C11.8553 23.3822 15.0821 23.2322 19.1887 23.2212C21.242 23.2102 23.5155 23.1213 25.9905 23.1082C28.4655 23.0931 31.1421 23.0674 34.0021 23.0165C39.7223 22.9469 46.1756 22.7917 53.2156 22.6215C56.7356 22.5142 60.4023 22.4026 64.1974 22.287C65.1462 22.248 66.1028 22.2527 67.0674 22.1717C68.0319 22.0809 69.0042 21.8937 69.9838 21.5914C70.9635 21.2934 71.9508 20.8792 72.9449 20.4047C73.9393 19.9014 74.9408 19.3946 75.9491 18.8842C76.9575 18.3846 77.9726 17.9068 78.9945 17.5438C80.0163 17.1874 81.0446 16.9262 82.0794 16.8086C84.1488 16.5557 86.2434 16.7941 88.3608 17.5496C90.4785 18.2824 92.6189 19.6015 94.7798 20.6593C96.941 21.7599 99.1226 22.4402 101.323 22.4525C103.523 22.4831 105.741 21.8785 107.975 20.5921C110.21 19.3148 112.46 17.379 114.724 15.782C116.989 14.1603 119.267 13.0695 121.556 12.8457C122.128 12.7903 122.701 12.7528 123.275 12.8179C123.849 12.8936 124.423 13.0938 124.998 13.4251C125.573 13.7633 126.149 14.2189 126.725 14.7894C127.013 15.0714 127.302 15.3868 127.59 15.725L128.023 16.2254L128.456 16.7717C129.611 18.1962 130.768 19.8101 131.928 20.9268C133.087 22.0606 134.248 22.7186 135.411 22.7648C136.574 22.8162 137.739 22.3619 138.905 21.4322C139.197 21.1927 139.489 20.9355 139.78 20.6248C140.072 20.3431 140.364 19.9929 140.656 19.6517C141.239 18.9269 141.824 18.1064 142.408 17.1848C143.577 15.3246 144.747 13.0287 145.917 10.8982L147.674 7.65937C147.967 7.11668 148.26 6.66863 148.553 6.16846C148.699 5.92843 148.846 5.6716 148.992 5.44539L149.432 4.77657C150.604 3.05262 151.777 1.72512 152.95 0.96199C153.536 0.568181 154.123 0.315731 154.71 0.171223C155.296 0.0389622 155.883 0.0111454 156.47 0.000473504C158.816 -0.0227946 161.163 0.811709 163.507 2.4557C165.852 4.06925 168.194 6.50033 170.531 8.80283C172.869 11.1678 175.202 13.3182 177.528 14.6942C178.691 15.4073 179.852 15.9136 181.012 16.2528C182.171 16.5859 183.328 16.7719 184.483 16.6988C185.638 16.6346 186.791 16.3286 187.941 15.7994C189.091 15.2626 190.239 14.5327 191.383 13.6468C193.673 11.9083 195.951 9.75245 198.215 8.47743C200.479 7.14397 202.729 6.71744 204.964 7.09761C207.198 7.40429 209.417 8.11423 211.617 9.17127C216.017 11.2801 220.343 15.0051 224.579 17.8365C228.814 20.6654 232.957 22.3906 236.99 22.7193C239.007 22.8682 240.996 22.4848 242.956 22.1022C244.915 21.7193 246.844 21.1402 248.742 21.218C252.537 21.2572 256.204 21.8507 259.724 22.1276C261.484 22.2555 263.207 22.3806 264.891 22.503C265.734 22.5496 266.566 22.5956 267.389 22.6409C268.211 22.6719 269.023 22.7023 269.825 22.7322C273.034 22.8087 276.077 22.8813 278.937 22.9495C284.657 23.0492 289.644 23.2336 293.751 23.2485C297.857 23.274 301.084 23.3437 303.284 23.336C305.484 23.3068 306.657 23.4845 306.657 23.4845C306.657 23.4845 305.484 23.7807 303.284 23.7515C301.084 23.7438 297.857 23.8626 293.751 23.8881C289.644 23.9032 284.657 24.0709 278.937 24.1708C276.077 24.2389 273.034 24.3115 269.825 24.3879C269.023 24.418 268.211 24.4485 267.389 24.4793C266.566 24.5247 265.734 24.5708 264.891 24.6171C263.207 24.7396 261.484 24.8647 259.724 24.9926C256.204 25.2697 252.537 25.8629 248.742 25.9021C246.844 25.98 244.915 25.4009 242.956 25.0179C240.996 24.6355 239.007 24.2522 236.99 24.4009C232.957 24.7298 228.814 26.4548 224.579 29.2837C220.343 32.1152 216.017 35.8401 211.617 37.9489C209.417 39.0059 207.198 39.7159 204.964 40.0227C202.729 40.4027 200.479 39.9762 198.215 38.6427C195.951 37.3677 193.673 35.2118 191.383 33.4734C190.239 32.5874 189.091 31.8575 187.941 31.3208C186.791 30.7916 185.638 30.4858 184.483 30.4214C183.328 30.3484 182.171 30.5342 181.012 30.8673C179.852 31.2066 178.691 31.713 177.528 32.4259C175.202 33.8019 172.869 35.9524 170.531 38.3173C168.194 40.6198 165.852 43.0511 163.507 44.6645C161.163 46.3085 158.816 47.143 156.47 47.1197C155.883 47.1092 155.296 47.0812 154.71 46.9489C154.123 46.8044 153.536 46.552 152.95 46.1583C151.777 45.3952 150.604 44.0677 149.432 42.3438L148.992 41.6748C148.846 41.4486 148.699 41.1917 148.553 40.9519C148.26 40.4517 147.967 40.0035 147.674 39.4608L145.917 36.2221C144.747 34.0915 143.577 31.7956 142.408 29.9356C141.824 29.0139 141.239 28.1932 140.656 27.4684C140.364 27.1273 140.072 26.777 139.78 26.4955C139.489 26.1847 139.197 25.9275 138.905 25.688C137.739 24.7583 136.574 24.304 135.411 24.3554C134.248 24.4018 133.087 25.0596 131.928 26.1934C130.768 27.3101 129.611 28.9242 128.456 30.3486L128.023 30.8948L127.59 31.3951C127.302 31.7335 127.013 32.0488 126.725 32.3308C126.149 32.9013 125.573 33.3568 124.998 33.695C124.423 34.0264 123.849 34.2267 123.275 34.3024C122.701 34.3675 122.128 34.3299 121.556 34.2746C119.267 34.0509 116.989 32.9601 114.724 31.3381C112.46 29.7412 110.21 27.8054 107.975 26.5283C105.741 25.2417 103.523 24.6372 101.323 24.6677C99.1226 24.6801 96.941 25.3603 94.7798 26.4611C92.6189 27.5186 90.4785 28.8379 88.3608 29.5706C86.2434 30.326 84.1488 30.5645 82.0794 30.3115C81.0446 30.194 80.0163 29.9329 78.9945 29.5766C77.9726 29.2135 76.9575 28.7358 75.9491 28.2359C74.9408 27.7256 73.9393 27.2188 72.9449 26.7155C71.9508 26.241 70.9635 25.8267 69.9838 25.529C69.0042 25.2265 68.0319 25.0393 67.0674 24.9486C66.1028 24.8675 65.1462 24.8722 64.1974 24.8334C60.4023 24.7177 56.7356 24.6059 53.2156 24.4987C46.1756 24.3286 39.7223 24.1735 34.0021 24.1038C31.1421 24.0527 28.4655 24.0272 25.9905 24.012C23.5155 23.999 21.242 23.8771 19.1887 23.8662C15.0821 23.8552 11.8553 23.7161 9.65538 23.7378C7.45528 23.7704 6.28198 23.5365 6.28198 23.5365Z" fill="#065FB8"/>
</g>
<g style="mix-blend-mode:darken">
<path fill-rule="evenodd" clip-rule="evenodd" d="M288.073 24.8957L309.476 25.1401L309.5 22.0786L288.097 21.8342L288.073 24.8957Z" fill="url(#paint0_linear_679_5092)"/>
</g>
<g style="mix-blend-mode:darken">
<path fill-rule="evenodd" clip-rule="evenodd" d="M21.9266 22.0786L0.523862 21.8342L0.5 24.8957L21.9027 25.1401L21.9266 22.0786Z" fill="url(#paint1_linear_679_5092)"/>
</g>
<defs>
<linearGradient id="paint0_linear_679_5092" x1="309.5" y1="21.8342" x2="288.073" y2="21.8342" gradientUnits="userSpaceOnUse">
<stop stop-color="#313431"/>
<stop offset="1" stop-color="white"/>
</linearGradient>
<linearGradient id="paint1_linear_679_5092" x1="0.5" y1="25.1401" x2="21.9266" y2="25.1401" gradientUnits="userSpaceOnUse">
<stop stop-color="#2E372D"/>
<stop offset="1" stop-color="white"/>
</linearGradient>
</defs>
</svg>
