<svg width="17" height="23" viewBox="0 0 17 23" fill="none" xmlns="http://www.w3.org/2000/svg">
<g clip-path="url(#clip0_1039_1149)">
<path d="M5 11.5C5 11.6925 5.07149 11.8575 5.20796 12.0018L11.8887 18.8006C12.0122 18.9244 12.1682 19 12.3501 19C12.7141 19 13 18.7043 13 18.3125C13 18.1201 12.9285 17.9551 12.8115 17.8313L6.58571 11.5L12.8115 5.16178C12.9285 5.03804 13 4.86618 13 4.68057C13 4.28873 12.7141 4 12.3501 4C12.1682 4 12.0122 4.06874 11.8887 4.19936L5.20796 10.9982C5.07149 11.1357 5 11.3006 5 11.5Z" fill="#007AFF"/>
</g>
<defs>
<clipPath id="clip0_1039_1149">
<rect width="17" height="23" fill="white"/>
</clipPath>
</defs>
</svg>
