<svg width="16" height="19" viewBox="0 0 16 19" fill="none" xmlns="http://www.w3.org/2000/svg">
<path d="M15.0804 9.9003C15.0717 9.45309 14.8963 9.0961 14.4974 8.75088L5.83954 1.21496C5.53706 0.944276 5.1776 0.814819 4.73923 0.814819C3.85809 0.814819 3.13916 1.44249 3.13916 2.22707C3.13916 2.61151 3.3189 2.97634 3.64768 3.26272L11.3236 9.89245L3.64768 16.53C3.32328 16.8203 3.13916 17.1734 3.13916 17.5695C3.13916 18.3541 3.85809 18.9896 4.73923 18.9896C5.16884 18.9896 5.53706 18.8563 5.83954 18.5857L14.4974 11.0497C14.9007 10.6966 15.0804 10.3357 15.0804 9.9003Z" fill="white"/>
</svg>
