<svg width="8" height="12" viewBox="0 0 8 12" fill="none" xmlns="http://www.w3.org/2000/svg">
<g clip-path="url(#clip0_1039_1168)">
<path d="M7.99988 5.99758C7.99681 5.77058 7.91616 5.58787 7.73974 5.41686L2.90645 0.708493C2.76728 0.568544 2.5994 0.5 2.39689 0.5C1.99036 0.5 1.66162 0.820886 1.66162 1.22994C1.66162 1.42873 1.7438 1.61629 1.89042 1.76064L6.25732 5.99449L1.89042 10.2297C1.74533 10.3756 1.66162 10.5568 1.66162 10.762C1.66162 11.171 1.99036 11.4967 2.39689 11.4967C2.59634 11.4967 2.76728 11.4248 2.90645 11.2867L7.73974 6.57829C7.9177 6.40242 7.99988 6.21819 7.99988 5.99758Z" fill="#8E8E93"/>
</g>
<defs>
<clipPath id="clip0_1039_1168">
<rect width="8" height="11" fill="white" transform="translate(0 0.5)"/>
</clipPath>
</defs>
</svg>
