<?xml version="1.0" encoding="UTF-8"?>
<!--Generator: Apple Native CoreSVG 326-->
<!DOCTYPE svg
PUBLIC "-//W3C//DTD SVG 1.1//EN"
       "http://www.w3.org/Graphics/SVG/1.1/DTD/svg11.dtd">
<svg version="1.1" xmlns="http://www.w3.org/2000/svg" xmlns:xlink="http://www.w3.org/1999/xlink" viewBox="0 0 22.7355 22.5717">
 <g>
  <rect height="22.5717" opacity="0" width="22.7355" x="0" y="0"/>
  <path d="M0 9.21035C0 14.2875 4.12718 18.4175 9.21035 18.4175C11.0733 18.4175 12.7948 17.8454 14.2267 16.8781L19.4178 22.0724C19.7437 22.4071 20.1938 22.5689 20.6556 22.5689C21.6518 22.5689 22.3663 21.8068 22.3663 20.8374C22.3663 20.3752 22.2046 19.9514 21.879 19.6199L16.7255 14.4456C17.7894 12.979 18.4235 11.1668 18.4235 9.21035C18.4235 4.12718 14.2935 0 9.21035 0C4.12718 0 0 4.12718 0 9.21035ZM2.34786 9.21035C2.34786 5.42653 5.42653 2.34786 9.21035 2.34786C12.997 2.34786 16.0668 5.42653 16.0668 9.21035C16.0668 12.9882 12.997 16.0668 9.21035 16.0668C5.42653 16.0668 2.34786 12.9882 2.34786 9.21035Z" fill="white"/>
 </g>
</svg>
