<?xml version="1.0" encoding="UTF-8"?>
<!--Generator: Apple Native CoreSVG 326-->
<!DOCTYPE svg
PUBLIC "-//W3C//DTD SVG 1.1//EN"
       "http://www.w3.org/Graphics/SVG/1.1/DTD/svg11.dtd">
<svg version="1.1" xmlns="http://www.w3.org/2000/svg" xmlns:xlink="http://www.w3.org/1999/xlink" viewBox="0 0 22.333 22.1748">
 <g>
  <rect height="22.1748" opacity="0" width="22.333" x="0" y="0"/>
  <path d="M0 8.89453C0 13.79 3.99023 17.7803 8.89453 17.7803C10.8721 17.7803 12.6914 17.1299 14.168 16.0312L19.96 21.832C20.1797 22.0605 20.4873 22.1748 20.8037 22.1748C21.498 22.1748 21.9639 21.6475 21.9639 20.9883C21.9639 20.6631 21.8496 20.3818 21.6387 20.1621L15.873 14.3701C17.0684 12.8672 17.7891 10.96 17.7891 8.89453C17.7891 3.99023 13.7988 0 8.89453 0C3.99023 0 0 3.99023 0 8.89453ZM1.64355 8.89453C1.64355 4.89551 4.89551 1.64355 8.89453 1.64355C12.8936 1.64355 16.1367 4.89551 16.1367 8.89453C16.1367 12.8848 12.8936 16.1367 8.89453 16.1367C4.89551 16.1367 1.64355 12.8848 1.64355 8.89453Z" fill="white"/>
 </g>
</svg>
