<svg width="16" height="14" viewBox="0 0 16 14" fill="none" xmlns="http://www.w3.org/2000/svg">
<path d="M2.76676 13.995C3.59024 13.995 5.46796 13.2247 6.7766 12.3724C6.92346 12.2754 7.03361 12.2506 7.15949 12.2506C7.2644 12.2581 7.35618 12.263 7.43748 12.263C12.2682 12.2556 16 9.84025 16 6.13027C16 2.7334 12.4439 0 8.00132 0C3.55615 0 0 2.7334 0 6.13027C0 8.19772 1.2798 10.0887 3.54041 11.2491C3.69251 11.3262 3.72661 11.4231 3.65318 11.5598C3.24931 12.1985 2.63301 12.8719 2.35502 13.2023C2.01672 13.6024 2.20554 13.995 2.76676 13.995Z" fill="white"/>
</svg>
