<?xml version="1.0" encoding="UTF-8"?>
<!--Generator: Apple Native CoreSVG 326-->
<!DOCTYPE svg
PUBLIC "-//W3C//DTD SVG 1.1//EN"
       "http://www.w3.org/Graphics/SVG/1.1/DTD/svg11.dtd">
<svg version="1.1" xmlns="http://www.w3.org/2000/svg" xmlns:xlink="http://www.w3.org/1999/xlink" viewBox="0 0 24.0688 23.7129">
 <g>
  <rect height="23.7129" opacity="0" width="24.0688" x="0" y="0"/>
  <path d="M11.8477 23.6997C18.3867 23.6997 23.6997 18.3823 23.6997 11.8521C23.6997 5.31299 18.3867 0 11.8477 0C5.31299 0 0 5.31299 0 11.8521C0 18.3823 5.31299 23.6997 11.8477 23.6997Z" fill="#a1c6eb"/>
  <path d="M11.8477 21.6299C9.33398 21.6299 6.55225 20.5664 4.87793 18.7339C6.25342 16.7388 8.78906 15.6006 11.8477 15.6006C14.8755 15.6006 17.4243 16.7168 18.813 18.7339C17.1387 20.5664 14.3569 21.6299 11.8477 21.6299ZM11.8477 13.6099C9.58447 13.5967 7.84424 11.6895 7.84424 9.21973C7.82666 6.89062 9.61084 4.92188 11.8477 4.92188C14.0845 4.92188 15.8511 6.89062 15.8511 9.21973C15.8511 11.6895 14.1064 13.623 11.8477 13.6099Z" fill="white" fill-opacity="0.85"/>
 </g>
</svg>
