<svg width="21" height="21" viewBox="0 0 21 21" fill="none" xmlns="http://www.w3.org/2000/svg">
<g clip-path="url(#clip0_863_18092)">
<path d="M0.419348 0.422068C0.99363 -0.137691 1.95151 -0.12487 2.49318 0.409227L10.4982 8.41094L18.5036 0.412432C19.0545 -0.137691 20.0101 -0.141413 20.5674 0.425272C21.1348 0.998823 21.1379 1.93944 20.5802 2.4896L12.5817 10.4881L20.5802 18.4802C21.1379 19.0335 21.1416 19.981 20.5674 20.5445C20 21.1043 19.0545 21.1075 18.5036 20.5573L10.4982 12.5621L2.49318 20.5606C1.95151 21.0946 0.986735 21.1144 0.419348 20.5477C-0.137931 19.9742 -0.128287 19.0207 0.409704 18.4866L8.42159 10.4881L0.409704 2.48638C-0.128287 1.94908 -0.14804 0.985527 0.419348 0.422068Z" fill="white"/>
</g>
<defs>
<clipPath id="clip0_863_18092">
<rect width="21" height="21" fill="white" transform="matrix(1 0 0 -1 0 21)"/>
</clipPath>
</defs>
</svg>
