<?xml version="1.0" encoding="UTF-8"?>
<!--Generator: Apple Native CoreSVG 326-->
<!DOCTYPE svg
PUBLIC "-//W3C//DTD SVG 1.1//EN"
       "http://www.w3.org/Graphics/SVG/1.1/DTD/svg11.dtd">
<svg version="1.1" xmlns="http://www.w3.org/2000/svg" xmlns:xlink="http://www.w3.org/1999/xlink" viewBox="0 0 18.8987 18.556">
 <g>
  <rect height="18.556" opacity="0" width="18.8987" x="0" y="0"/>
  <path d="M0.431769 18.1198C1.02064 18.6999 2.01819 18.6823 2.56751 18.1374L9.26478 11.4357L15.9576 18.133C16.5245 18.6999 17.5089 18.6999 18.0846 18.1154C18.6691 17.5265 18.6735 16.5509 18.1022 15.984L11.4137 9.28677L18.1022 2.59829C18.6735 2.027 18.6735 1.04702 18.0846 0.466944C17.5001-0.113134 16.5245-0.117529 15.9576 0.449366L9.26478 7.14224L2.56751 0.444971C2.01819-0.0999504 1.01624-0.121923 0.431769 0.46255C-0.143915 1.05142-0.130731 2.04458 0.418585 2.5895L7.12025 9.28677L0.418585 15.9884C-0.130731 16.5377-0.152704 17.5397 0.431769 18.1198Z" fill="black"/>
 </g>
</svg>
